<?xml version="1.0" encoding="utf-8"?>
<!-- Generator: Adobe Illustrator 19.0.0, SVG Export Plug-In . SVG Version: 6.00 Build 0)  -->
<svg version="1.1" id="Layer_1" xmlns="http://www.w3.org/2000/svg" xmlns:xlink="http://www.w3.org/1999/xlink" x="0px" y="0px"
	 viewBox="0 0 1984.3 1984.3" style="enable-background:new 0 0 1984.3 1984.3;" xml:space="preserve">
<style type="text/css">
	.st0{fill:#F5F5FF;}
	.st1{opacity:0.29;fill:#B5B5E2;}
	.st2{fill:none;stroke:#F5F5FF;stroke-width:3;stroke-miterlimit:10;}
	.st3{fill:#F5F5FF;stroke:#F5F5FF;stroke-miterlimit:10;}
	.st4{fill:none;stroke:#F5F5FF;stroke-miterlimit:10;}
	.st5{fill:#D4C5E2;}
	.st6{opacity:0.49;}
	.st7{clip-path:url(#SVGID_2_);}
	.st8{opacity:0.36;fill:#FFFFFF;}
	.st9{fill:#FFFFFF;stroke:#F5F5FF;stroke-miterlimit:10;}
	.st10{fill:none;stroke:#F5F5FF;stroke-width:2;stroke-miterlimit:10;}
	.st11{fill:#9594C8;}
	.st12{fill:#B5B5E2;}
	.st13{fill:#F9B17C;}
	.st14{fill:#F38A75;}
	.st15{fill:#EAF4FB;}
	.st16{fill:#FFFFFF;}
	.st17{fill:none;stroke:#EAF4FB;stroke-width:5;stroke-linecap:round;stroke-miterlimit:10;}
	.st18{opacity:0.19;fill:#5F63AC;}
	.st19{opacity:0.35;}
	.st20{fill:#CADCED;}
	.st21{fill:#EAF4FB;stroke:#EAF4FB;stroke-miterlimit:10;}
	.st22{fill:#EAF4FB;stroke:#CADCED;stroke-width:17;stroke-linecap:round;stroke-miterlimit:10;}
	.st23{fill:none;stroke:#CADCED;stroke-width:5;stroke-miterlimit:10;}
	.st24{fill:#B2C9ED;}
	.st25{fill:none;stroke:#CADCED;stroke-width:4;stroke-miterlimit:10;}
	.st26{opacity:0.35;fill:#171338;}
	.st27{fill:#171338;}
	.st28{fill:#D37477;}
	.st29{fill:#5F63AC;}
	.st30{fill:#E37D80;}
	.st31{fill:#E85A5B;}
	.st32{fill:none;stroke:#171338;stroke-width:3;stroke-linecap:round;stroke-miterlimit:10;}
	.st33{fill:none;stroke:#E85A5B;stroke-width:2;stroke-linecap:round;stroke-miterlimit:10;}
	.st34{fill:#282F72;}
	.st35{fill:none;stroke:#5F63AC;stroke-width:5;stroke-linecap:round;stroke-miterlimit:10;}
</style>
<g id="background">
	<rect x="621.5" y="356.4" class="st0" width="780.6" height="961.8"/>
	<circle class="st1" cx="1020.7" cy="610.5" r="88.5"/>
	<g>
		<rect x="274.9" y="587.2" class="st2" width="95.8" height="38.5"/>
		<rect x="370.7" y="587.2" class="st2" width="95.8" height="38.5"/>
		<rect x="466.5" y="587.2" class="st2" width="95.8" height="38.5"/>
		<polyline class="st2" points="738.6,625.7 562.4,625.7 562.4,587.2 658.2,587.2 		"/>
		<rect x="335.8" y="625.7" class="st2" width="95.8" height="38.5"/>
		<rect x="431.7" y="625.7" class="st2" width="95.8" height="38.5"/>
		<rect x="527.5" y="625.7" class="st3" width="95.8" height="38.5"/>
		<polyline class="st2" points="274.9,664.2 370.6,664.2 370.6,702.6 191.6,702.6 		"/>
		<rect x="370.7" y="664.2" class="st2" width="95.8" height="38.5"/>
		<rect x="466.5" y="664.2" class="st2" width="95.8" height="38.5"/>
		<polyline class="st2" points="658.2,702.6 562.4,702.6 562.4,664.2 680.6,664.2 		"/>
		<polyline class="st2" points="274.9,702.6 335.8,702.6 335.8,741.1 274.9,741.1 		"/>
		<rect x="335.8" y="702.6" class="st2" width="95.8" height="38.5"/>
		<rect x="431.7" y="702.6" class="st2" width="95.8" height="38.5"/>
		<rect x="527.5" y="702.6" class="st3" width="95.8" height="38.5"/>
		<rect x="274.9" y="741.1" class="st2" width="95.8" height="38.5"/>
		<rect x="370.7" y="741.1" class="st3" width="95.8" height="38.5"/>
		<rect x="466.5" y="741.1" class="st2" width="95.8" height="38.5"/>
		<rect x="562.4" y="741.1" class="st2" width="95.8" height="38.5"/>
		<polyline class="st2" points="274.9,779.6 335.8,779.6 335.8,818 274.9,818 		"/>
		<rect x="335.8" y="779.6" class="st2" width="95.8" height="38.5"/>
		<rect x="431.7" y="779.6" class="st2" width="95.8" height="38.5"/>
		<rect x="527.5" y="779.6" class="st2" width="95.8" height="38.5"/>
		<polyline class="st2" points="260.2,356.5 370.6,356.5 370.6,394.9 274.9,394.9 		"/>
		<rect x="466.5" y="356.5" class="st2" width="95.8" height="38.5"/>
		<polyline class="st2" points="562.4,394.9 562.4,356.5 658.2,356.5 		"/>
		<rect x="274.9" y="394.9" class="st2" width="60.9" height="38.5"/>
		<rect x="335.8" y="394.9" class="st2" width="95.8" height="38.5"/>
		<rect x="431.7" y="394.9" class="st2" width="95.8" height="38.5"/>
		<rect x="527.5" y="394.9" class="st2" width="95.8" height="38.5"/>
		<polyline class="st2" points="274.9,433.4 370.6,433.4 370.6,471.9 274.9,471.9 		"/>
		<rect x="370.7" y="433.4" class="st3" width="95.8" height="38.5"/>
		<rect x="466.5" y="433.4" class="st2" width="95.8" height="38.5"/>
		<polyline class="st4" points="658.2,471.9 562.4,471.9 562.4,433.4 708.6,433.4 		"/>
		<polyline class="st2" points="262,471.9 335.8,471.9 335.8,510.3 274.9,510.3 		"/>
		<rect x="335.8" y="471.9" class="st2" width="95.8" height="38.5"/>
		<rect x="431.7" y="471.9" class="st2" width="95.8" height="38.5"/>
		<rect x="527.5" y="471.9" class="st3" width="95.8" height="38.5"/>
		<polyline class="st2" points="215.3,510.3 370.6,510.3 370.6,548.8 274.9,548.8 		"/>
		<rect x="370.7" y="510.3" class="st2" width="95.8" height="38.5"/>
		<rect x="466.5" y="510.3" class="st2" width="95.8" height="38.5"/>
		<rect x="562.4" y="510.3" class="st2" width="95.8" height="38.5"/>
		<polyline class="st2" points="274.9,548.8 335.8,548.8 335.8,587.2 274.9,587.2 		"/>
		<rect x="335.8" y="548.8" class="st2" width="95.8" height="38.5"/>
		<rect x="431.7" y="548.8" class="st3" width="95.8" height="38.5"/>
		<polyline class="st2" points="623.3,587.2 527.5,587.2 527.5,548.8 623.3,548.8 		"/>
	</g>
	<g>
		<rect x="274.9" y="1048.8" class="st2" width="95.8" height="38.5"/>
		<rect x="370.7" y="1048.8" class="st2" width="95.8" height="38.5"/>
		<rect x="466.5" y="1048.8" class="st2" width="95.8" height="38.5"/>
		<polyline class="st2" points="738.6,1087.2 562.4,1087.2 562.4,1048.8 658.2,1048.8 		"/>
		<rect x="335.8" y="1087.2" class="st2" width="95.8" height="38.5"/>
		<rect x="431.7" y="1087.2" class="st2" width="95.8" height="38.5"/>
		<rect x="527.5" y="1087.2" class="st3" width="95.8" height="38.5"/>
		<polyline class="st2" points="274.9,1125.7 370.6,1125.7 370.6,1164.2 191.6,1164.2 		"/>
		<rect x="370.7" y="1125.7" class="st2" width="95.8" height="38.5"/>
		<rect x="466.5" y="1125.7" class="st2" width="95.8" height="38.5"/>
		<polyline class="st2" points="658.2,1164.2 562.4,1164.2 562.4,1125.7 680.6,1125.7 		"/>
		<polyline class="st2" points="274.9,1164.2 335.8,1164.2 335.8,1202.6 274.9,1202.6 		"/>
		<rect x="335.8" y="1164.2" class="st2" width="95.8" height="38.5"/>
		<rect x="431.7" y="1164.2" class="st2" width="95.8" height="38.5"/>
		<rect x="527.5" y="1164.2" class="st3" width="95.8" height="38.5"/>
		<rect x="274.9" y="1202.6" class="st2" width="95.8" height="38.5"/>
		<rect x="370.7" y="1202.6" class="st3" width="95.8" height="38.5"/>
		<rect x="466.5" y="1202.6" class="st2" width="95.8" height="38.5"/>
		<rect x="562.4" y="1202.6" class="st2" width="95.8" height="38.5"/>
		<polyline class="st2" points="274.9,1241.1 335.8,1241.1 335.8,1279.6 274.9,1279.6 		"/>
		<rect x="335.8" y="1241.1" class="st2" width="95.8" height="38.5"/>
		<rect x="431.7" y="1241.1" class="st2" width="95.8" height="38.5"/>
		<rect x="527.5" y="1241.1" class="st2" width="95.8" height="38.5"/>
		<polyline class="st2" points="260.2,818 370.6,818 370.6,856.5 274.9,856.5 		"/>
		<rect x="466.5" y="818" class="st2" width="95.8" height="38.5"/>
		<polyline class="st2" points="562.4,856.5 562.4,818 658.2,818 		"/>
		<rect x="274.9" y="856.5" class="st2" width="60.9" height="38.5"/>
		<rect x="335.8" y="856.5" class="st2" width="95.8" height="38.5"/>
		<rect x="431.7" y="856.5" class="st2" width="95.8" height="38.5"/>
		<rect x="527.5" y="856.5" class="st2" width="95.8" height="38.5"/>
		<polyline class="st2" points="274.9,894.9 370.6,894.9 370.6,933.4 274.9,933.4 		"/>
		<rect x="370.7" y="894.9" class="st3" width="95.8" height="38.5"/>
		<rect x="466.5" y="894.9" class="st2" width="95.8" height="38.5"/>
		<polyline class="st4" points="658.2,933.4 562.4,933.4 562.4,894.9 708.6,894.9 		"/>
		<polyline class="st2" points="262,933.4 335.8,933.4 335.8,971.9 274.9,971.9 		"/>
		<rect x="335.8" y="933.4" class="st2" width="95.8" height="38.5"/>
		<rect x="431.7" y="933.4" class="st2" width="95.8" height="38.5"/>
		<rect x="527.5" y="933.4" class="st3" width="95.8" height="38.5"/>
		<polyline class="st2" points="215.3,971.9 370.6,971.9 370.6,1010.3 274.9,1010.3 		"/>
		<rect x="370.7" y="971.9" class="st2" width="95.8" height="38.5"/>
		<rect x="466.5" y="971.9" class="st2" width="95.8" height="38.5"/>
		<rect x="562.4" y="971.9" class="st2" width="95.8" height="38.5"/>
		<polyline class="st2" points="274.9,1010.3 335.8,1010.3 335.8,1048.8 274.9,1048.8 		"/>
		<rect x="335.8" y="1010.3" class="st2" width="95.8" height="38.5"/>
		<rect x="431.7" y="1010.3" class="st3" width="95.8" height="38.5"/>
		<polyline class="st2" points="623.3,1048.8 527.5,1048.8 527.5,1010.3 623.3,1010.3 		"/>
	</g>
	<g>
		<rect x="1334.2" y="587.2" class="st2" width="95.8" height="38.5"/>
		<rect x="1430" y="587.2" class="st2" width="95.8" height="38.5"/>
		<rect x="1525.9" y="587.2" class="st2" width="95.8" height="38.5"/>
		<polyline class="st2" points="1798,625.7 1621.7,625.7 1621.7,587.2 1717.5,587.2 		"/>
		<rect x="1395.2" y="625.7" class="st2" width="95.8" height="38.5"/>
		<rect x="1491" y="625.7" class="st2" width="95.8" height="38.5"/>
		<rect x="1586.9" y="625.7" class="st3" width="95.8" height="38.5"/>
		<polyline class="st2" points="1334.2,664.2 1430,664.2 1430,702.6 1250.9,702.6 		"/>
		<rect x="1430" y="664.2" class="st2" width="95.8" height="38.5"/>
		<rect x="1525.9" y="664.2" class="st2" width="95.8" height="38.5"/>
		<polyline class="st2" points="1717.5,702.6 1621.7,702.6 1621.7,664.2 1739.9,664.2 		"/>
		<polyline class="st2" points="1334.2,702.6 1395.1,702.6 1395.1,741.1 1334.2,741.1 		"/>
		<rect x="1395.2" y="702.6" class="st2" width="95.8" height="38.5"/>
		<rect x="1491" y="702.6" class="st2" width="95.8" height="38.5"/>
		<rect x="1586.9" y="702.6" class="st3" width="95.8" height="38.5"/>
		<rect x="1334.2" y="741.1" class="st2" width="95.8" height="38.5"/>
		<rect x="1430" y="741.1" class="st3" width="95.8" height="38.5"/>
		<rect x="1525.9" y="741.1" class="st2" width="95.8" height="38.5"/>
		<rect x="1621.7" y="741.1" class="st2" width="95.8" height="38.5"/>
		<polyline class="st2" points="1334.2,779.6 1395.1,779.6 1395.1,818 1334.2,818 		"/>
		<rect x="1395.2" y="779.6" class="st2" width="95.8" height="38.5"/>
		<rect x="1491" y="779.6" class="st2" width="95.8" height="38.5"/>
		<rect x="1586.9" y="779.6" class="st2" width="95.8" height="38.5"/>
		<polyline class="st2" points="1319.5,356.5 1430,356.5 1430,394.9 1334.2,394.9 		"/>
		<rect x="1525.9" y="356.5" class="st2" width="95.8" height="38.5"/>
		<polyline class="st2" points="1621.7,394.9 1621.7,356.5 1717.5,356.5 		"/>
		<rect x="1334.2" y="394.9" class="st2" width="60.9" height="38.5"/>
		<rect x="1395.2" y="394.9" class="st2" width="95.8" height="38.5"/>
		<rect x="1491" y="394.9" class="st2" width="95.8" height="38.5"/>
		<rect x="1586.9" y="394.9" class="st2" width="95.8" height="38.5"/>
		<polyline class="st2" points="1334.2,433.4 1430,433.4 1430,471.9 1334.2,471.9 		"/>
		<rect x="1430" y="433.4" class="st3" width="95.8" height="38.5"/>
		<rect x="1525.9" y="433.4" class="st2" width="95.8" height="38.5"/>
		<polyline class="st4" points="1717.5,471.9 1621.7,471.9 1621.7,433.4 1767.9,433.4 		"/>
		<polyline class="st2" points="1321.3,471.9 1395.1,471.9 1395.1,510.3 1334.2,510.3 		"/>
		<rect x="1395.2" y="471.9" class="st2" width="95.8" height="38.5"/>
		<rect x="1491" y="471.9" class="st2" width="95.8" height="38.5"/>
		<rect x="1586.9" y="471.9" class="st3" width="95.8" height="38.5"/>
		<polyline class="st2" points="1274.6,510.3 1430,510.3 1430,548.8 1334.2,548.8 		"/>
		<rect x="1430" y="510.3" class="st2" width="95.8" height="38.5"/>
		<rect x="1525.9" y="510.3" class="st2" width="95.8" height="38.5"/>
		<rect x="1621.7" y="510.3" class="st2" width="95.8" height="38.5"/>
		<polyline class="st2" points="1334.2,548.8 1395.1,548.8 1395.1,587.2 1334.2,587.2 		"/>
		<rect x="1395.2" y="548.8" class="st2" width="95.8" height="38.5"/>
		<rect x="1491" y="548.8" class="st3" width="95.8" height="38.5"/>
		<polyline class="st2" points="1682.6,587.2 1586.9,587.2 1586.9,548.8 1682.6,548.8 		"/>
	</g>
	<g>
		<rect x="1334.2" y="1048.8" class="st2" width="95.8" height="38.5"/>
		<rect x="1430" y="1048.8" class="st2" width="95.8" height="38.5"/>
		<rect x="1525.9" y="1048.8" class="st2" width="95.8" height="38.5"/>
		<polyline class="st2" points="1798,1087.2 1621.7,1087.2 1621.7,1048.8 1717.5,1048.8 		"/>
		<rect x="1395.2" y="1087.2" class="st2" width="95.8" height="38.5"/>
		<rect x="1491" y="1087.2" class="st2" width="95.8" height="38.5"/>
		<rect x="1586.9" y="1087.2" class="st3" width="95.8" height="38.5"/>
		<polyline class="st2" points="1334.2,1125.7 1430,1125.7 1430,1164.2 1250.9,1164.2 		"/>
		<rect x="1430" y="1125.7" class="st2" width="95.8" height="38.5"/>
		<rect x="1525.9" y="1125.7" class="st2" width="95.8" height="38.5"/>
		<polyline class="st2" points="1717.5,1164.2 1621.7,1164.2 1621.7,1125.7 1739.9,1125.7 		"/>
		<polyline class="st2" points="1334.2,1164.2 1395.1,1164.2 1395.1,1202.6 1334.2,1202.6 		"/>
		<rect x="1395.2" y="1164.2" class="st2" width="95.8" height="38.5"/>
		<rect x="1491" y="1164.2" class="st2" width="95.8" height="38.5"/>
		<rect x="1586.9" y="1164.2" class="st3" width="95.8" height="38.5"/>
		<rect x="1334.2" y="1202.6" class="st2" width="95.8" height="38.5"/>
		<rect x="1430" y="1202.6" class="st3" width="95.8" height="38.5"/>
		<rect x="1525.9" y="1202.6" class="st2" width="95.8" height="38.5"/>
		<rect x="1621.7" y="1202.6" class="st2" width="95.8" height="38.5"/>
		<polyline class="st2" points="1334.2,1241.1 1395.1,1241.1 1395.1,1279.6 1334.2,1279.6 		"/>
		<rect x="1395.2" y="1241.1" class="st2" width="95.8" height="38.5"/>
		<rect x="1491" y="1241.1" class="st2" width="95.8" height="38.5"/>
		<rect x="1586.9" y="1241.1" class="st2" width="95.8" height="38.5"/>
		<polyline class="st2" points="1319.5,818 1430,818 1430,856.5 1334.2,856.5 		"/>
		<rect x="1525.9" y="818" class="st2" width="95.8" height="38.5"/>
		<polyline class="st2" points="1621.7,856.5 1621.7,818 1717.5,818 		"/>
		<rect x="1334.2" y="856.5" class="st2" width="60.9" height="38.5"/>
		<rect x="1395.2" y="856.5" class="st2" width="95.8" height="38.5"/>
		<rect x="1491" y="856.5" class="st2" width="95.8" height="38.5"/>
		<rect x="1586.9" y="856.5" class="st2" width="95.8" height="38.5"/>
		<polyline class="st2" points="1334.2,894.9 1430,894.9 1430,933.4 1334.2,933.4 		"/>
		<rect x="1430" y="894.9" class="st3" width="95.8" height="38.5"/>
		<rect x="1525.9" y="894.9" class="st2" width="95.8" height="38.5"/>
		<polyline class="st4" points="1717.5,933.4 1621.7,933.4 1621.7,894.9 1767.9,894.9 		"/>
		<polyline class="st2" points="1321.3,933.4 1395.1,933.4 1395.1,971.9 1334.2,971.9 		"/>
		<rect x="1395.2" y="933.4" class="st2" width="95.8" height="38.5"/>
		<rect x="1491" y="933.4" class="st2" width="95.8" height="38.5"/>
		<rect x="1586.9" y="933.4" class="st3" width="95.8" height="38.5"/>
		<polyline class="st2" points="1274.6,971.9 1430,971.9 1430,1010.3 1334.2,1010.3 		"/>
		<rect x="1430" y="971.9" class="st2" width="95.8" height="38.5"/>
		<rect x="1525.9" y="971.9" class="st2" width="95.8" height="38.5"/>
		<rect x="1621.7" y="971.9" class="st2" width="95.8" height="38.5"/>
		<polyline class="st2" points="1334.2,1010.3 1395.1,1010.3 1395.1,1048.8 1334.2,1048.8 		"/>
		<rect x="1395.2" y="1010.3" class="st2" width="95.8" height="38.5"/>
		<rect x="1491" y="1010.3" class="st3" width="95.8" height="38.5"/>
		<polyline class="st2" points="1682.6,1048.8 1586.9,1048.8 1586.9,1010.3 1682.6,1010.3 		"/>
	</g>
	<path class="st5" d="M1267.5,846.3v470.8H758.1V846.3c0-30.1,24.4-54.5,54.6-54.5H1213C1243.1,791.7,1267.5,816.1,1267.5,846.3z"/>
	<g class="st6">
		<defs>
			<path id="SVGID_1_" class="st6" d="M1219.4,791.7H806.3c-26.6,0-48.1,21.6-48.1,48.1v477.3h509.4V839.9
				C1267.5,813.3,1246,791.7,1219.4,791.7z"/>
		</defs>
		<clipPath id="SVGID_2_">
			<use xlink:href="#SVGID_1_"  style="overflow:visible;"/>
		</clipPath>
		<g class="st7">
			<rect x="743.9" y="1009.4" class="st8" width="151.1" height="60.7"/>
			<rect x="895.1" y="1009.4" class="st9" width="151.1" height="60.7"/>
			<rect x="1046.3" y="1009.4" class="st10" width="151.1" height="60.7"/>
			<polyline class="st10" points="1475.6,1070.1 1197.5,1070.1 1197.5,1009.4 1348.6,1009.4 			"/>
			<rect x="840.1" y="1070.1" class="st10" width="151.1" height="60.7"/>
			<rect x="991.3" y="1070.1" class="st10" width="151.1" height="60.7"/>
			<rect x="1142.5" y="1070.1" class="st10" width="151.1" height="60.7"/>
			<polyline class="st10" points="743.9,1130.7 895,1130.7 895,1191.4 612.5,1191.4 			"/>
			<rect x="895.1" y="1130.7" class="st10" width="151.1" height="60.7"/>
			<rect x="1046.3" y="1130.7" class="st10" width="151.1" height="60.7"/>
			<polyline class="st10" points="1348.6,1191.4 1197.5,1191.4 1197.5,1130.7 1384.1,1130.7 			"/>
			<polyline class="st10" points="743.9,1191.4 840,1191.4 840,1252.1 743.9,1252.1 			"/>
			<rect x="840.1" y="1191.4" class="st10" width="151.1" height="60.7"/>
			<rect x="991.3" y="1191.4" class="st10" width="151.1" height="60.7"/>
			<rect x="1142.5" y="1191.4" class="st10" width="151.1" height="60.7"/>
			<rect x="743.9" y="1252.1" class="st10" width="151.1" height="60.7"/>
			<rect x="895.1" y="1252.1" class="st10" width="151.1" height="60.7"/>
			<rect x="1046.3" y="1252.1" class="st10" width="151.1" height="60.7"/>
			<rect x="1197.5" y="1252.1" class="st9" width="151.1" height="60.7"/>
			<polyline class="st10" points="743.9,1312.8 840,1312.8 840,1373.5 743.9,1373.5 			"/>
			<rect x="840.1" y="1312.8" class="st10" width="151.1" height="60.7"/>
			<rect x="991.3" y="1312.8" class="st10" width="151.1" height="60.7"/>
			<rect x="1142.5" y="1312.8" class="st10" width="151.1" height="60.7"/>
			<polyline class="st10" points="720.7,645.3 895,645.3 895,706 743.9,706 			"/>
			<rect x="895.1" y="645.3" class="st3" width="151.1" height="60.7"/>
			<rect x="1046.3" y="645.3" class="st10" width="151.1" height="60.7"/>
			<polyline class="st10" points="1197.5,706 1197.5,645.3 1348.6,645.3 			"/>
			<rect x="743.9" y="706" class="st9" width="96.1" height="60.7"/>
			<rect x="840.1" y="706" class="st10" width="151.1" height="60.7"/>
			<rect x="991.3" y="706" class="st10" width="151.1" height="60.7"/>
			<rect x="1142.5" y="706" class="st10" width="151.1" height="60.7"/>
			<polyline class="st10" points="743.9,766.7 895,766.7 895,827.3 743.9,827.3 			"/>
			<rect x="895.1" y="766.7" class="st10" width="151.1" height="60.7"/>
			<rect x="1046.3" y="766.7" class="st10" width="151.1" height="60.7"/>
			<polyline class="st8" points="723.6,827.3 840,827.3 840,888 743.9,888 			"/>
			<rect x="840.1" y="827.3" class="st10" width="151.1" height="60.7"/>
			<rect x="991.3" y="827.3" class="st10" width="151.1" height="60.7"/>
			<rect x="1142.5" y="827.3" class="st10" width="151.1" height="60.7"/>
			<polyline class="st8" points="649.9,888 895,888 895,948.7 743.9,948.7 			"/>
			<rect x="895.1" y="888" class="st10" width="151.1" height="60.7"/>
			<rect x="1046.3" y="888" class="st10" width="151.1" height="60.7"/>
			<rect x="1197.5" y="888" class="st9" width="151.1" height="60.7"/>
			<polyline class="st10" points="743.9,948.7 840,948.7 840,1009.4 743.9,1009.4 			"/>
			<rect x="840.1" y="948.7" class="st10" width="151.1" height="60.7"/>
			<rect x="991.3" y="948.7" class="st10" width="151.1" height="60.7"/>
			<polyline class="st10" points="1293.6,1009.4 1142.5,1009.4 1142.5,948.7 1293.6,948.7 			"/>
		</g>
	</g>
	<path class="st11" d="M826.5,1323.7v-283.9c0-101.6,80.8-186.3,182.4-187.6c103.2-1.3,187.3,81.9,187.3,184.9v286.6"/>
	<path class="st12" d="M875.6,1077.2c0-101.6,80.8-186.3,182.4-187.6c31.9-0.4,62,7.3,88.3,21.1c-34.2-36.5-83.2-59.2-137.4-58.5
		c-101.6,1.3-182.4,86-182.4,187.6v254h49.1V1077.2z"/>
	<g>
		<path class="st13" d="M972.4,1291.9c0,0-115.2-17.4-113-114.7c2.2-97.3,90.3-144.8,90.3-144.8s-29.9,120.5,22.7,101.9
			c52.5-18.5,0-168.9,0-168.9s106.1,53.4,97.2,151.1c-8.8,97.7,35.2,151,61.8,110.5c26.6-40.5-19.7-130.9-19.7-130.9
			s99.6,71.8,67.2,142.5C1146.6,1309.3,972.4,1291.9,972.4,1291.9z"/>
	</g>
	<g>
		<path class="st14" d="M983.7,1285.8c0,0-89.2-13.5-87.5-88.8s70-112.2,70-112.2s-23.1,93.3,17.6,79s32-130.9,32-130.9
			s50.1,41.4,43.3,117.1c-6.8,75.7,27.3,117,47.9,85.6c20.6-31.4-15.3-101.4-15.3-101.4s77.2,55.6,52,110.4
			C1118.6,1299.3,983.7,1285.8,983.7,1285.8z"/>
		<path class="st14" d="M1098.3,1119.2c0,0,13.5,12.6,12.6,0c-0.9-12.6-26.9-26-26.9-26L1098.3,1119.2z"/>
		<path class="st14" d="M958.4,1064.4c0,0,2,1.7,4.3,2.4c2.8,0.9,6.3,0.3,7.4-6.7c2.1-12.8-11.7-41.5-11.7-41.5
			S950,1054.5,958.4,1064.4z"/>
	</g>
	<circle class="st11" cx="1086.1" cy="1158" r="15.4"/>
	<circle class="st11" cx="1066" cy="1196.9" r="26.8"/>
	<polygon class="st11" points="934.3,1213.3 1060.3,1170.7 1073.7,1222.6 951.3,1274 	"/>
	<polygon class="st11" points="1086.1,1142.6 1086.1,1173.4 1071.1,1178.6 1063,1181.4 1056.1,1183.7 1042,1188.6 1034,1191.3 
		1025.6,1194.2 1017.9,1196.9 998.9,1203.4 991.5,1205.9 969.9,1213.3 965.7,1176.5 989.9,1169.7 998.9,1167.2 1001,1166.6 
		1007.7,1164.7 1026.5,1159.4 1036.7,1156.5 1044.3,1154.4 1067.8,1147.8 	"/>
	<circle class="st12" cx="969.9" cy="1192.4" r="18.6"/>
	<circle class="st12" cx="942.2" cy="1243.4" r="32.4"/>
	<path class="st5" d="M1131.7,1213c0,0.7,0,1.4-0.1,2.1c-0.2,2.6-0.8,5.1-1.7,7.4c-1.4,3.6-3.5,6.8-6.2,9.4c-1.6,1.5-3.4,2.9-5.3,4
		c-0.8,0.4-1.6,0.8-2.4,1.2l-0.2,0.1c-3.1,1.3-6.6,2.1-10.2,2.1c-4.8,0-9.2-1.3-13.1-3.5c-6.4-3.7-11.1-10.1-12.6-17.6
		c-0.3-1.6-0.5-3.3-0.5-5c0-3.8,0.8-7.3,2.2-10.6c1-2.2,2.3-4.3,3.8-6.1c1.9-2.3,4.1-4.2,6.7-5.7c0.4-0.2,0.8-0.5,1.2-0.7
		c1.6-0.8,3.2-1.5,5-2c0.9-0.3,1.9-0.5,2.8-0.6c1.4-0.3,2.9-0.4,4.5-0.4C1120,1186.9,1131.7,1198.6,1131.7,1213z"/>
	<path class="st5" d="M1115.9,1237l-0.2,0.1l-19.9,9.9l-6.4,3.2l-11.8,5.9l-6.8,3.4l-10.5,5.2l-8.3,4.1l-48.1,23.9l-22.1-57.4
		l25.1-10.2l6.9-2.8l16.6-6.7c0,0,0,0,0,0l12.3-5l8.9-3.6l6.5-2.6l15.7-6.4l9-3.6l8.9-3.6l1.5-0.6l0,0l5-2l7.3,20.3l4.9,13.6l3,8.3
		L1115.9,1237z"/>
	<circle class="st12" cx="999.8" cy="1261.2" r="31.6"/>
	<g>
		<g>
			<path class="st11" d="M996.1,1263.2c0.4-1.3,0.7-2.6,1.1-3.9c0.9-0.4,1.8-0.7,2.8-0.8c1.3-0.3,2.7-0.5,4-0.4
				c6.4,0.3,7.5,6.5,3.9,10.5c-3.7,4.2-13,6.3-17.8,3c-8.4-5.7-0.1-14.7,6-17.7c6.1-3,14.2-4.1,19.3,1.3
				c10.9,11.6-11.5,23.8-21,23.7c-5.9-0.1-12.2-2.6-15.8-7.5c-4.2-5.8-1.6-13.7,5.5-15.5c1.2-0.3,0.7-2.2-0.5-1.9
				c-5.8,1.5-10.1,7.2-9.1,13.3c1.1,6.3,7.4,10.8,13.1,12.5c7.5,2.4,15.7,0.6,22.2-3.7c5.5-3.6,11.7-10.1,9.8-17.4
				c-4-15.7-28.4-9.5-33.8,1.8c-7.3,15.6,17.3,18.4,24.4,8.2c3.2-4.6,1.7-11.3-4.2-12.5c-4.4-0.9-16,1.3-11.8,8
				C995,1265.3,996.8,1264.3,996.1,1263.2L996.1,1263.2z"/>
		</g>
	</g>
	<g>
		<g>
			<path class="st11" d="M936.4,1249.7c-1.7-3.7-1.2-6,1.5-7c1.4-0.6,2.8-1.1,4.3-1.4c4.2-0.8,8.3,0.7,9.4,5c1.6,6.1-4.5,9.5-9.5,11
				c-8.3,2.4-23.6-0.8-20.9-12.8c0.9-3.9,4.7-7.2,7.6-9.8c4.1-3.6,8.2-5.5,13.6-6c4.8-0.5,10-0.3,14.3,2.1c4,2.2,10.6,10.5,3.8,13.8
				c-1.2,0.6-0.1,2.3,1,1.7c3.7-1.8,4.4-6.2,3.1-9.8c-2-5.4-7.7-8.6-13.1-9.6c-6.2-1.1-13.6-0.6-19.2,2.6c-4.8,2.7-10.7,7.8-12.7,13
				c-4.5,11.8,9.4,18.8,19,17.5c5.2-0.7,11.7-2.9,14.3-7.9c2-3.9,0.7-9-2.9-11.5c-4.6-3.2-12.8-1.4-16.4,2.6c-2.8,3.1-1.8,8,2.7,8.5
				C937.7,1251.9,937.7,1249.9,936.4,1249.7L936.4,1249.7z"/>
		</g>
	</g>
	<g>
		<g>
			<path class="st11" d="M1054.6,1173.6c-0.5-0.5-0.9-0.9-1.4-1.4c-0.1,0.5-0.2,0.9-0.4,1.4c2.5-1.4,5.2-2.9,8.2-2.2
				c5.6,1.3,4.5,6.4-0.2,8.4c-5.8,2.4-11.7-0.2-12.6-6.5c-0.7-5.4,0.6-8.9,6.2-10.6c4.3-1.3,8.8-0.7,13,0.8c1.2,0.4,1.7-1.5,0.5-1.9
				c-6.2-2.3-15.8-2.8-20.5,3c-2.4,3-1.7,7.3-1,10.8c0.6,3.2,2.3,5.3,5.4,6.4c4.7,1.6,15.7,0.7,15.3-6.3c-0.5-8.2-10.6-6.5-15.4-3.7
				c-0.5,0.3-0.6,0.9-0.4,1.4c0.6,1,1.1,1.6,2.1,2.1C1054.7,1176,1055.7,1174.2,1054.6,1173.6L1054.6,1173.6z"/>
		</g>
	</g>
	<rect x="747.1" y="1293.8" class="st11" width="553.9" height="33"/>
	<g>
		<g>
			<path class="st13" d="M845.5,1151.1c-1.8-14.4,6.9-28.3,13.4-40.6c6.4-12.1,13.5-23.8,21.9-34.6c8.2-10.6,17.5-20.1,27.5-29
				c9.5-8.5,19.1-16.8,26.1-27.5c1.8-2.7-2.5-5.2-4.3-2.5c-7.8,11.7-18.9,20.4-29.1,29.9c-9.9,9.1-18.9,19.1-26.9,29.9
				c-8.5,11.4-15.6,23.6-22,36.2c-6,11.8-13.2,24.5-11.5,38.2C840.9,1154.3,845.9,1154.3,845.5,1151.1L845.5,1151.1z"/>
		</g>
	</g>
	<g>
		<g>
			<path class="st13" d="M900.5,1035c4.2-6,9.2-12,12.7-18.5c2.9-5.4,3.7-11.5,4.5-17.5c1.5-11.4,2.3-23.4-4.1-33.4
				c-1.7-2.7-6.1-0.2-4.3,2.5c6.2,9.7,4.8,21.5,3.3,32.3c-0.8,5.9-2.1,11.3-5.4,16.4c-3.5,5.3-7.3,10.5-11,15.7
				C894.4,1035.1,898.7,1037.6,900.5,1035L900.5,1035z"/>
		</g>
	</g>
	<g>
		<g>
			<path class="st13" d="M935.3,969.1c-5-8.6-11.1-17.4-14.4-26.8c-3.4-9.5-2.6-19.6-1.8-29.4c0.3-3.2-4.7-3.2-5,0
				c-0.8,10.3-1.5,20.9,2,30.8c3.5,9.9,9.7,18.9,14.9,28C932.6,974.4,936.9,971.9,935.3,969.1L935.3,969.1z"/>
		</g>
	</g>
	<g>
		<g>
			<path class="st13" d="M938.4,927.2c-3.3-13.5,3-26.6,8.9-38.4c1.4-2.9-2.9-5.4-4.3-2.5c-6.6,13.2-13,27.3-9.4,42.3
				C934.3,931.7,939.1,930.3,938.4,927.2L938.4,927.2z"/>
		</g>
	</g>
	<g>
		<g>
			<path class="st13" d="M1067.7,1035.9c-12.5-21.1-29.2-37.5-48.2-52.7c-9-7.2-21.6-15.5-24.8-27.2c-2.3-8.4-1.4-17.7-9.1-23.4
				c-2.6-1.9-5.1,2.4-2.5,4.3c7.3,5.4,5.1,18.3,8.9,25.9c5.1,9.9,15.5,17.1,24,23.9c18.7,15,35.1,30.9,47.4,51.7
				C1065.1,1041.2,1069.4,1038.7,1067.7,1035.9L1067.7,1035.9z"/>
		</g>
	</g>
	<g>
		<g>
			<path class="st13" d="M1010.4,951.5c-2.7-11.7-2.2-23.5,1.4-34.9c1-3.1-3.9-4.4-4.8-1.3c-3.9,12.3-4.3,25-1.4,37.6
				C1006.3,955.9,1011.1,954.6,1010.4,951.5L1010.4,951.5z"/>
		</g>
	</g>
	<g>
		<g>
			<path class="st13" d="M1161.9,1128.2c-2.1-7.6-4.2-15.3-8.4-22.1c-3.2-5.2-7.4-9.8-11.8-14.1c-9.5-9.3-20.5-17.5-26.6-29.7
				c-1.4-2.9-5.8-0.4-4.3,2.5c5.6,11.2,15.2,19.3,24.2,27.7c4.7,4.4,9.4,9,13,14.3c4.7,6.9,6.9,14.8,9.1,22.7
				C1157.9,1132.6,1162.7,1131.3,1161.9,1128.2L1161.9,1128.2z"/>
		</g>
	</g>
	<g>
		<g>
			<path class="st13" d="M1097.8,1054.8c-4.4-18.8-8.8-38.4-2.3-57.2c1-3-3.8-4.4-4.8-1.3c-6.8,19.6-2.3,40.3,2.3,59.9
				C1093.7,1059.3,1098.5,1057.9,1097.8,1054.8L1097.8,1054.8z"/>
		</g>
	</g>
	<g>
		<g>
			<path class="st13" d="M1077.8,991.7c-8.4-22.2-6.7-53.9-31.5-65.9c-2.9-1.4-5.4,2.9-2.5,4.3c23.1,11.3,21.3,42.2,29.2,63
				C1074.1,996,1079,994.7,1077.8,991.7L1077.8,991.7z"/>
		</g>
	</g>
	<path class="st15" d="M543.4,771.1"/>
	<circle class="st16" cx="1006.1" cy="606.5" r="88.5"/>
	<polyline class="st17" points="1006.1,538.9 1006.1,606.5 1062.7,606.5 	"/>
	<path class="st18" d="M1267.5,846.3V1073c-57.4-43.9,0-185-18.4-231.3c-18.4-46.3-102.8-23.7-139.9-30.5
		c-51-9.4-209.8,35.1-266.5,30.5c-56.8-4.7-33.3,63.7-38.6,225.5c-5.3,161.8-45.5,208.6-45.5,208.6l-0.4-2.2V846.3
		c0-30.1,24.4-54.5,54.6-54.5H1213C1243.1,791.7,1267.5,816.1,1267.5,846.3z"/>
	<g class="st19">
		<rect x="708.7" y="587.8" class="st11" width="161.6" height="53"/>
		<rect x="1172.8" y="452.6" class="st11" width="150.4" height="42.9"/>
		<rect x="796.2" y="474" class="st11" width="67.4" height="53"/>
		<rect x="1139.8" y="634.4" class="st11" width="41.6" height="40.2"/>
	</g>
	<g>
		<rect x="713.2" y="583.1" class="st16" width="161.6" height="53"/>
		<rect x="1177.3" y="447.8" class="st16" width="161.6" height="42.9"/>
		<rect x="800.8" y="469.2" class="st16" width="67.4" height="53"/>
		<rect x="1144.4" y="629.7" class="st16" width="41.6" height="40.2"/>
	</g>
</g>
<g id="object1">
	<polygon class="st20" points="479.3,1729.7 1273.5,1729.7 1186.7,1701 656.5,1685.3 	"/>
	<g>
		<path class="st21" d="M811.9,1515.8l-332.6,213.9H516c0,0,94.2-11.7,125.7-12.5c64.6-1.6,193.5,11.6,258.1,12.5
			c60,0.8,180-8.2,240-7.5c33.5,0.4,133.7,7.5,133.7,7.5l244.9-198.1l-198.4,2.8c-12.3,0.2-24.7-0.2-37-1l-134.3-9.2
			c-12.2-0.8-24.5-1.2-36.8-1l-175,2.4c-17.3,0.2-34.5-0.5-51.7-2.3L811.9,1515.8z"/>
		<g>
			<path class="st15" d="M537.7,1707.2c-25.4,0-50.8,0-76.2,0"/>
			<g>
				<path class="st15" d="M537.7,1704.7c-25.4,0-50.8,0-76.2,0c-3.2,0-3.2,5,0,5c25.4,0,50.8,0,76.2,0
					C541,1709.7,541,1704.7,537.7,1704.7L537.7,1704.7z"/>
			</g>
		</g>
		<g>
			<path class="st15" d="M568.4,1683.1c-17.3,3.3-34.9,4.8-52.4,4.3"/>
			<g>
				<path class="st15" d="M567.7,1680.7c-17.1,3.2-34.4,4.6-51.7,4.3c-3.2-0.1-3.2,4.9,0,5c17.8,0.3,35.6-1.2,53.1-4.4
					C572.2,1684.9,570.8,1680.1,567.7,1680.7L567.7,1680.7z"/>
			</g>
		</g>
		<g>
			<path class="st15" d="M612.8,1660.1c-22.4,6.5-45.9,9-69.1,7.4"/>
			<g>
				<path class="st15" d="M612.2,1657.7c-22.3,6.4-45.3,8.8-68.5,7.3c-3.2-0.2-3.2,4.8,0,5c23.6,1.5,47.1-1,69.8-7.5
					C616.6,1661.6,615.3,1656.8,612.2,1657.7L612.2,1657.7z"/>
			</g>
		</g>
		<g>
			<path class="st15" d="M641.7,1636c-29.7-0.5-59.4-0.2-89.1,1"/>
			<g>
				<path class="st15" d="M641.7,1633.5c-29.7-0.5-59.4-0.2-89.1,1c-3.2,0.1-3.2,5.1,0,5c29.7-1.1,59.4-1.4,89.1-1
					C644.9,1638.5,644.9,1633.5,641.7,1633.5L641.7,1633.5z"/>
			</g>
		</g>
		<g>
			<path class="st15" d="M663.5,1620c-21.1,0-42.3,0.4-63.4,1.2"/>
			<g>
				<path class="st15" d="M663.5,1617.5c-21.1,0-42.2,0.4-63.4,1.2c-3.2,0.1-3.2,5.1,0,5c21.1-0.8,42.2-1.2,63.4-1.2
					C666.7,1622.5,666.7,1617.5,663.5,1617.5L663.5,1617.5z"/>
			</g>
		</g>
		<g>
			<path class="st15" d="M704.1,1598.3c-22.4,0-44.9,0-67.3,0"/>
			<g>
				<path class="st15" d="M704.1,1595.8c-22.4,0-44.9,0-67.3,0c-3.2,0-3.2,5,0,5c22.4,0,44.9,0,67.3,0
					C707.3,1600.8,707.3,1595.8,704.1,1595.8L704.1,1595.8z"/>
			</g>
		</g>
		<g>
			<path class="st15" d="M745.6,1583.3c-25.1,0.9-50.2,0.3-75.2-1.8"/>
			<g>
				<path class="st15" d="M745.6,1580.8c-25.1,0.9-50.2,0.3-75.2-1.8c-3.2-0.3-3.2,4.7,0,5c25,2.1,50.1,2.7,75.2,1.8
					C748.9,1585.7,748.9,1580.7,745.6,1580.8L745.6,1580.8z"/>
			</g>
		</g>
		<g>
			<path class="st15" d="M774.4,1564.4c-29.7,0.4-59.4,0.8-89.1,1.3"/>
			<g>
				<path class="st15" d="M774.4,1561.9c-29.7,0.4-59.4,0.8-89.1,1.3c-3.2,0-3.2,5,0,5c29.7-0.4,59.4-0.8,89.1-1.3
					C777.6,1566.9,777.6,1561.9,774.4,1561.9L774.4,1561.9z"/>
			</g>
		</g>
		<g>
			<path class="st15" d="M804.1,1549.8c-30.4-1.6-60.7-3.2-91.1-4.8"/>
			<g>
				<path class="st15" d="M804.1,1547.3c-30.4-1.6-60.7-3.2-91.1-4.8c-3.2-0.2-3.2,4.8,0,5c30.4,1.6,60.7,3.2,91.1,4.8
					C807.3,1552.5,807.3,1547.5,804.1,1547.3L804.1,1547.3z"/>
			</g>
		</g>
		<g>
			<path class="st15" d="M814,1530.1c-24.7-1.5-49.6-1.4-74.3,0.1"/>
			<g>
				<path class="st15" d="M814,1527.6c-24.8-1.4-49.5-1.4-74.3,0.1c-3.2,0.2-3.2,5.2,0,5c24.7-1.5,49.5-1.6,74.3-0.1
					C817.2,1532.8,817.2,1527.8,814,1527.6L814,1527.6z"/>
			</g>
		</g>
		<g>
			<path class="st15" d="M837.7,1516.2c-34-2-68-2.6-102-1.8"/>
			<g>
				<path class="st15" d="M837.7,1513.7c-34-2-68-2.6-102-1.8c-3.2,0.1-3.2,5.1,0,5c34-0.8,68-0.2,102,1.8
					C840.9,1518.9,840.9,1513.9,837.7,1513.7L837.7,1513.7z"/>
			</g>
		</g>
		<g>
			<path class="st15" d="M1257.5,1715.9c36.3,0.4,72.6,0.8,108.9,1.3"/>
			<g>
				<path class="st15" d="M1257.5,1718.4c36.3,0.4,72.6,0.8,108.9,1.3c3.2,0,3.2-5,0-5c-36.3-0.4-72.6-0.8-108.9-1.3
					C1254.3,1713.4,1254.3,1718.4,1257.5,1718.4L1257.5,1718.4z"/>
			</g>
		</g>
		<g>
			<path class="st15" d="M1282.3,1696.3c23.1,0,46.2,0,69.3,0"/>
			<g>
				<path class="st15" d="M1282.3,1698.8c23.1,0,46.2,0,69.3,0c3.2,0,3.2-5,0-5c-23.1,0-46.2,0-69.3,0
					C1279.1,1693.8,1279.1,1698.8,1282.3,1698.8L1282.3,1698.8z"/>
			</g>
		</g>
		<g>
			<path class="st15" d="M1313,1674.5c30.7-0.9,61.4-1.3,92.1-1"/>
			<g>
				<path class="st15" d="M1313,1677c30.7-0.9,61.4-1.2,92.1-1c3.2,0,3.2-5,0-5c-30.7-0.3-61.4,0.1-92.1,1
					C1309.8,1672.1,1309.8,1677.1,1313,1677L1313,1677z"/>
			</g>
		</g>
		<g>
			<path class="st15" d="M1346.6,1659.5c31-1,62-2.1,93.1-3.1"/>
			<g>
				<path class="st15" d="M1346.6,1662c31-1,62-2.1,93.1-3.1c3.2-0.1,3.2-5.1,0-5c-31,1-62,2.1-93.1,3.1
					C1343.4,1657.1,1343.4,1662.1,1346.6,1662L1346.6,1662z"/>
			</g>
		</g>
		<g>
			<path class="st15" d="M1384.3,1624c24.8,0,49.5,0,74.3,0"/>
			<g>
				<path class="st15" d="M1384.3,1626.5c24.8,0,49.5,0,74.3,0c3.2,0,3.2-5,0-5c-24.8,0-49.5,0-74.3,0
					C1381.1,1621.5,1381,1626.5,1384.3,1626.5L1384.3,1626.5z"/>
			</g>
		</g>
		<g>
			<path class="st15" d="M1402.1,1601.2c26.7,1.4,53.5,2.1,80.2,2.1"/>
			<g>
				<path class="st15" d="M1402.1,1603.7c26.7,1.4,53.4,2.1,80.2,2.1c3.2,0,3.2-5,0-5c-26.7,0-53.5-0.7-80.2-2.1
					C1398.9,1598.5,1398.9,1603.5,1402.1,1603.7L1402.1,1603.7z"/>
			</g>
		</g>
		<g>
			<path class="st15" d="M1447.6,1578.3c19.1-0.3,38.3-0.7,57.4-1"/>
			<g>
				<path class="st15" d="M1447.6,1580.8c19.1-0.3,38.3-0.7,57.4-1c3.2-0.1,3.2-5.1,0-5c-19.1,0.3-38.3,0.7-57.4,1
					C1444.4,1575.8,1444.4,1580.8,1447.6,1580.8L1447.6,1580.8z"/>
			</g>
		</g>
		<g>
			<path class="st15" d="M1474.4,1553.7c19.4-1.3,38.9-2,58.4-2.1"/>
			<g>
				<path class="st15" d="M1474.4,1556.2c19.4-1.3,38.9-2,58.4-2.1c3.2,0,3.2-5,0-5c-19.5,0.1-39,0.8-58.4,2.1
					C1471.2,1551.5,1471.2,1556.5,1474.4,1556.2L1474.4,1556.2z"/>
			</g>
		</g>
	</g>
	<ellipse class="st20" cx="1000.2" cy="1625.5" rx="150.4" ry="37.3"/>
</g>
<g id="object2">
	<line class="st22" x1="393.8" y1="1434.1" x2="393.8" y2="1688.8"/>
	<line class="st22" x1="555.3" y1="1374.7" x2="555.3" y2="1629.4"/>
	<line class="st22" x1="719.5" y1="1434.1" x2="719.5" y2="1688.8"/>
	<g>
		<g>
			<path class="st20" d="M327.2,1185.4c3.2,0,3.2-5,0-5C323.9,1180.4,323.9,1185.4,327.2,1185.4L327.2,1185.4z"/>
		</g>
	</g>
	<ellipse class="st20" cx="560.8" cy="1421.3" rx="257.3" ry="43.1"/>
	<rect x="303.6" y="1405.7" class="st20" width="514.5" height="15.6"/>
	<ellipse class="st21" cx="560.8" cy="1405.7" rx="257.3" ry="43.1"/>
	<ellipse class="st23" cx="555.1" cy="1537.5" rx="168.2" ry="28.2"/>
	<ellipse class="st16" cx="560.8" cy="1405.7" rx="153.4" ry="25.7"/>
	<g>
		<g>
			<g>
				<path class="st24" d="M535,1365.5c-8.2-1.8-16.7-5.3-21.6-12.5c-4.8-7-5-16.9,1.4-22.9c5.3-5.1,13.1-7.7,19.1-11.9
					c5.5-3.9,10.7-8.4,15.3-13.5c4.4-4.8,8.4-10.1,11.6-15.7c2.6-4.6,2.7-8.7-1.2-12.6c-4.7-4.7-11.5-8-17.2-11.1
					c-6.9-3.7-14-6.9-21.4-9.7c-1.2-0.5-1.7,1.5-0.5,1.9c8.3,3.1,16.3,6.8,24,11.2c3.4,1.9,6.7,3.9,9.9,6.1c1.9,1.3,4.2,2.8,5.5,4.8
					c1.8,3,0.7,5.5-0.7,8.3c-6.7,13.4-19.5,24.9-32.2,32.4c-5.3,3.2-11.6,5.5-15.5,10.5c-3.2,4.2-4.1,9.6-3.1,14.7
					c2.4,12.7,14.7,19.2,26.3,21.8C535.7,1367.7,536.3,1365.8,535,1365.5L535,1365.5z"/>
			</g>
		</g>
		<g>
			<g>
				<path class="st24" d="M544.8,1366.5c-4.1-10.6-22-17.2-10.7-29.8c8.3-9.3,21.4-12.2,32.3-17.4c9.5-4.6,17.6-11.7,19.7-22.5
					c1.9-10.2-1.5-20.9-9.4-27.7c-1-0.8-2.4,0.6-1.4,1.4c9.7,8.4,12.4,23.7,5.5,34.7c-6.6,10.5-19.7,14.2-30.5,18.8
					c-8.2,3.5-20.4,9.4-22,19.4c-1.7,10.4,11.2,15.2,14.5,23.7C543.4,1368.2,545.3,1367.7,544.8,1366.5L544.8,1366.5z"/>
			</g>
		</g>
		<g>
			<g>
				<path class="st24" d="M519.3,1370c-7.4-4.7-12.7-12.3-14.5-20.9c-2.1-10.2,1.5-19.7,7-28.2c2.9-4.5,5.9-8.6,10.7-11.1
					c2.9-1.5,6-2.8,8.2-5.4c4.6-5.3,3.4-12.9,2.3-19.1c-0.2-1.3-2.2-0.7-1.9,0.5c0.9,5.2,2.1,11.7-1.1,16.3
					c-2.8,4.2-8.3,5.2-12.2,8.1c-6.5,4.9-11.4,14.4-13.9,22c-4.9,14.8,1.4,31.2,14.4,39.5C519.4,1372.4,520.4,1370.7,519.3,1370
					L519.3,1370z"/>
			</g>
		</g>
		<path class="st24" d="M496.1,1344.1c0,0,15.6-7.3,62.2,0l-27.8,34.1L496.1,1344.1z"/>
		<path class="st20" d="M496.1,1344.1c0,0,19.3,27.9,62.2,0v61.7c0,4.5-2.7,8.6-6.8,10.3c-9.8,4.2-29.1,9.4-50.8-1.1
			c-3-1.4-5.1-4.1-6-7.3C491.8,1396.7,486,1368.4,496.1,1344.1z"/>
		<path class="st25" d="M549.7,1371.9c0,0,14.8-19.7,26.3-5.5c11.3,14,1.4,35.1-26.3,25.9"/>
		<g>
			<g>
				<path class="st24" d="M562.6,1257.1c-10.1-5.3-21.8-7.1-31.5-13.2c-9.6-6-18.2-21.2-6.6-30c1-0.8,0-2.5-1-1.7
					c-8.5,6.5-7.9,18.7-1.5,26.5c9.7,12,26.8,13.3,39.7,20.2C562.8,1259.4,563.8,1257.7,562.6,1257.1L562.6,1257.1z"/>
			</g>
		</g>
		<g>
			<g>
				<path class="st24" d="M506.7,1247.4c-6.1-3.5-13.2-7.8-15.6-14.9c-2.2-6.3,0.9-15.2,8.4-15.8c1.3-0.1,1.3-2.1,0-2
					c-7.2,0.6-11.5,7.6-11.1,14.5c0.6,9.5,9.8,15.6,17.3,19.9C506.8,1249.8,507.8,1248.1,506.7,1247.4L506.7,1247.4z"/>
			</g>
		</g>
		<g>
			<g>
				<path class="st24" d="M533.7,1199.7c3.2-2.5,6.8-5.3,7.4-9.6c0.5-3.2-0.7-6.5-3.7-8c-1.2-0.6-2.2,1.2-1,1.7
					c3.1,1.5,3.5,5.3,2,8.2c-1.3,2.6-3.9,4.5-6.1,6.3C531.3,1199.1,532.7,1200.5,533.7,1199.7L533.7,1199.7z"/>
			</g>
		</g>
		<g>
			<g>
				<path class="st24" d="M531,1168.4c-4.9-2.6-9.6-5.7-14-9.2c-1-0.8-2.4,0.6-1.4,1.4c4.5,3.6,9.3,6.8,14.4,9.5
					C531.1,1170.7,532.1,1169,531,1168.4L531,1168.4z"/>
			</g>
		</g>
	</g>
</g>
<g id="character1">
	<g>
		<g>
			<path class="st11" d="M1722.2,1344.2l-222.6,70.7L1476,1090c-3.3-29.9,16.2-56.4,43.7-63.7c5.1-1.4,10.5-2,16-1.9l62.9,1
				l105.9,1.6L1722.2,1344.2z"/>
			<path class="st26" d="M1621.5,1170.8c-9.7,57.4,22.6,129.9-42.2,118.9c-65.7-11.2-40.9-263.4-40.9-263.4
				c5.1-1.4,10.3-1.8,15.9-1.7l62.7,1c-20.6,17.8-1.8,19.6,6.9,25.4c33.4,22,33.8,42.3,24.7,65.4
				C1641,1135.7,1627.5,1135.5,1621.5,1170.8z"/>
			<path class="st27" d="M1484.8,1613.5c0,0,2.4,18.1,0,22.5s-28.1,34.8-37.9,47c-4.5,5.7-53.3,8.8-41.5-10.7
				c11.7-19.6,50.7-48.7,50.7-48.7S1477.1,1611.7,1484.8,1613.5z"/>
			<path class="st28" d="M1456.9,1550.9c0,0,4.5,70.2-8.3,81.6c-12.8,11.3-39.5,32.6-25.9,36.4c13.6,3.8,20.9,11,32.5-1.8
				c11.6-12.8,12.6-26.6,23.4-39.4c10.7-12.8-2.6-47.2,2.5-67.6C1486.4,1539.6,1456.9,1550.9,1456.9,1550.9z"/>
			<path class="st28" d="M1285.7,1520.8c0,0-8.6,46.1-29.5,58.4c-19.9,11.7-98.8,8.7-92,18s17.3,12.5,63.1,8.3
				c45.8-4.2,78.4,16.7,73.1-8.7c-5.4-25.9,2.1-52.4,2.1-52.4L1285.7,1520.8z"/>
			<path class="st27" d="M1301.9,1605.3c-0.2,14.2-140.6,5.7-156.6,4.3c-8.1-0.7,27.7-26.2,39.6-25.3c11.9,0.8,1.9,18.5,11.2,18.5
				c9.3,0,61.9-2.6,80.4-2.4C1295.6,1600.6,1302.2,1589.2,1301.9,1605.3z"/>
			<path class="st27" d="M1517.7,1008.1c0,0,26.2,46.6,13.2,56.8c-13,10.2-13.5,54.5,7.4,59.7c20.9,5.2,75-10.8,90.1-30.6
				c15.1-19.8-29.2-85.9-29.2-85.9s-4.7-54.6-17.1-54.6C1569.6,953.5,1517.7,1008.1,1517.7,1008.1z"/>
			<path class="st29" d="M1500.7,1551.3l-202.4-30.5v-178.5c0-35.3,28.6-63.9,63.9-63.9l314.2,27.4v220.8L1500.7,1551.3z"/>
			<path class="st27" d="M1427.8,1321.1c0,0-49.8,220.8-31.8,265.2c18,44.4,64.8-29.9,91.8-18.8c27,11.1,37.8,5.7,37.1-47.1
				c-0.6-52.8,0-212.5,0-212.5L1427.8,1321.1z"/>
			<path class="st27" d="M1567.7,1363.2c0,0-160-12.1-168.3,12.6c-8.6,25.5-56.7,174.2-74.1,183.7c-17.4,9.5-92.1,11.6-95.2-7.4
				c-3.2-19,69.3-165.4,91.5-209.8c22.2-44.4,132.3-53.9,132.3-53.9l110.2,17.3L1567.7,1363.2z"/>
			<path class="st14" d="M1541.7,1100.2l-75.5,221.2c0,0,51.5,30,65.6,12C1545.7,1315.4,1541.7,1100.2,1541.7,1100.2z"/>
			<path class="st13" d="M1529,1104.3c-4.5-22.3,6.8-13.7,29.2-15.7c41.9-3.7,74.4-12.1,85.3,2.3c16.8,22.1-3.3,235.8-11.7,266.4
				c-8.5,30.6-55.7-34.6-83.1-29.3c-11.4,2.2-15.7-26.7-14.8-76.4c0.2-9.5,2.8-40.8,0-57.2C1527.7,1157.9,1533,1124.3,1529,1104.3z"
				/>
			<path class="st14" d="M1696.3,1263.5"/>
			<path class="st28" d="M1586.7,1025.5c0,0-5.2,56.2,3.4,57.3c8.6,1.1,15.9,0.5,15.9,0.5s-27,56.3-36.7,30.6
				c-2.8-7.4-5.7-14.7-9.3-21.8l-1.8-3.6l7.4-1.4c4-0.8,6.6-4.6,5.8-8.6l-8.1-41.6L1586.7,1025.5z"/>
			<path class="st30" d="M1519.8,961.9c0,0-6.7,20.4-4.1,36.3c2.6,15.9,14.8,62.6,37,61.6c18.4-0.9,35.5-16.5,48.7-41.8
				c0,0,20.4,2.6,18-18.8c-2.4-21.4-56.3-55.2-56.3-55.2L1519.8,961.9z"/>
			<path class="st27" d="M1541.7,1009.1c1.3,4,3.9,6.8,5.9,6.2c2-0.6,2.5-4.4,1.2-8.5c-1.3-4-3.9-6.8-5.9-6.2
				C1541,1001.3,1540.4,1005.1,1541.7,1009.1z"/>
			<path class="st27" d="M1520.4,1012.4c1.6,3.9,4.5,6.4,6.4,5.6s2.1-4.6,0.5-8.5c-1.6-3.9-4.5-6.4-6.4-5.6
				C1518.9,1004.6,1518.7,1008.4,1520.4,1012.4z"/>
			<path class="st31" d="M1531.7,1010.9c0,0-3.9,18.3-9.1,23.8c-5.2,5.5,15.3,5.5,15.8,2.5
				C1538.8,1034.1,1531.7,1010.9,1531.7,1010.9z"/>
			<path class="st32" d="M1545.3,1046.4c0,0,14.1,4.8,20.5-13.5"/>
			
				<ellipse transform="matrix(0.8798 -0.4754 0.4754 0.8798 -300.2912 861.4047)" class="st31" cx="1553" cy="1024.4" rx="10.3" ry="4.4"/>
			<path class="st33" d="M1541.6,994.9c0,0,8.1-5.3,14.1,1.7"/>
			<path class="st33" d="M1531,994.8c0,0-5.9-4.6-13,2.7"/>
			<path class="st14" d="M1613.6,1109.3c0,0,8,73.9-2.7,89.1c-10.7,15.1-24.7,53.2-45,72.2c-10.9,10.2-34.9,37.3-48,32.7
				c-13.1-4.6,36.4,29,62.3,34.4c25.9,5.3,12-4.9,29.3,0.5c17.3,5.4,16.5-40.8,46.7-67.6c24.2-21.4-2-137.8-5.7-157.3
				C1646.7,1093.9,1644.4,1104.4,1613.6,1109.3z"/>
			<path class="st34" d="M1511.3,973c3,1.8,5.5,4.2,7.7,6.9c3.8,4.7,16.2-2.8,36.9-5.6c15.5-2.1,27.9,18.2,24.8,30.4
				c-3.1,12.2-15.3,32.4,15.1,34.5c30.4,2,35.4,42,10.3,62s-33.1,26.1-4,27.7c27.7,1.5,19-0.2,40.9,1.4c21.9,1.5,31.9,9.4,35.2-17.6
				c6.1-49.9-65-76.3-51.1-115.1c13.9-38.8-6.8-67.4-46.4-64c-39.6,3.5-38.9-16.2-50.5-0.3C1520,946.9,1504.2,968.9,1511.3,973z"/>
			<polygon class="st5" points="1492.9,1337.6 1574.6,1328 1399.9,1328 			"/>
			<polygon class="st29" points="1339.6,1337.6 1347.6,1342.3 1515.1,1342.3 1558.1,1332.8 1521.7,1332.8 			"/>
			<path class="st12" d="M1508.5,1337.6l-31.1-136.7c-1.6-6.9-7.8-11.8-14.8-11.6l-140.8,2.4c-9.6,0.2-16.6,9.3-14.2,18.6
				l32.1,127.3H1508.5z"/>
			<path class="st29" d="M1466.1,1189.7L1466.1,1189.7c4.7,0,8.8,3.1,10,7.6l37.9,140.3h-5.5"/>
			<path class="st5" d="M1750.6,1069.2v435.5c0,23.3-18.9,42.2-42.2,42.2l-8.3,0.9l-167.9-2.6l-37.9-0.6
				c-23.3,0-42.2-18.9-42.2-42.2v-171.9c0-20.6,14.8-37.8,34.4-41.5c2.5-0.5,5.2-0.7,7.8-0.7h129.6c23.3,0,42.2-18.9,42.2-42.2
				v-176.9c0-11.2,4.5-21.9,12.4-29.9c8.6-8.6,19.2-12.5,29.6-12.5C1729.8,1026.9,1750.6,1043.8,1750.6,1069.2z"/>
		</g>
		<path class="st11" d="M1532.2,1545.4l-37.9-0.6c-23.3,0-42.2-18.9-42.2-42.2v-171.9c0-20.6,14.8-37.8,34.4-41.5l15.1,0.4
			c0,0,27.7,5,30.2,43.9C1533.4,1360.1,1532.8,1475.5,1532.2,1545.4z"/>
	</g>
	<g>
		<g>
			<path class="st34" d="M1510.2,969.4c3.7,14.3,17.8,14.4,30,13.4c7.5-0.6,15.4-1.4,22.7,1.1c4.3,1.5,7.5,4.1,8.4,8.9
				c0.6,3.3,1.3,9.2-1.1,11.8c-2.2,2.4,1.4,5.9,3.5,3.5c3.9-4.3,3.4-11.3,2.4-16.7c-1.3-6.8-6.3-10.6-12.7-12.6
				c-7.8-2.4-16.1-1.6-24.1-1c-9.4,0.7-21.3,1.6-24.3-9.8C1514.2,965,1509.4,966.3,1510.2,969.4L1510.2,969.4z"/>
		</g>
	</g>
	<g>
		<g>
			<path class="st34" d="M1624.4,984.3c-3.6,9.1-7.3,20.4-4.2,30.2c2.8,8.6,11,12.8,18.9,15.7c10.5,3.9,20.1,7.3,28.9,14.6
				c9.7,8,17.3,18.3,22.2,29.9c1.2,2.9,6.1,1.6,4.8-1.3c-8-18.9-22.9-35.8-42.2-43.6c-8.2-3.3-19-4.8-25.1-11.9
				c-7.5-8.7-2.3-22.9,1.4-32.2C1630.4,982.7,1625.6,981.4,1624.4,984.3L1624.4,984.3z"/>
		</g>
	</g>
	<g>
		<g>
			<path class="st34" d="M1582.2,1030.6c8.4,4.1,17.7,8.6,22.7,16.8c6.3,10.4,3.1,22.2-4.2,31c-11.2,13.5-30,23.5-30.1,43.2
				c0,3.2,5,3.2,5,0c0.2-22.6,28.1-31.7,35.7-51.2c3.6-9,2.3-19.5-3.4-27.4c-5.7-8-14.7-12.6-23.3-16.8
				C1581.8,1024.9,1579.3,1029.2,1582.2,1030.6L1582.2,1030.6z"/>
		</g>
	</g>
	<g>
		<g>
			<path class="st34" d="M1632.2,1051.3c0.9,2.9,2.7,4.4,5.3,5.8c4.2,2.4,8,4.8,11.6,8.1c6.4,6,12.4,12.6,18,19.3
				c5.8,7,11.1,14.5,15.2,22.7c4.2,8.6,8.1,18.8,4.3,28.2c-1.2,3,3.6,4.3,4.8,1.3c6.6-16.3-5.6-35.9-15.1-48.6
				c-5.4-7.2-11.4-14-17.7-20.5c-3.1-3.3-6.3-6.5-9.9-9.4c-1.7-1.4-3.5-2.6-5.4-3.8c-1.9-1.1-5.6-2.3-6.4-4.7
				C1636.1,1046.9,1631.3,1048.2,1632.2,1051.3L1632.2,1051.3z"/>
		</g>
	</g>
	<g>
		<g>
			<path class="st27" d="M1531.7,1064c-3.7,5.2-7.8,10-12,14.8c-3.2,3.7-6.3,7.1-8.1,11.7c-3.4,8.9-1.8,18.9,2.4,27.2
				c1.5,2.9,5.8,0.3,4.3-2.5c-4.1-8.1-5.4-18.6-0.3-26.6c5.1-7.9,12.5-14.4,17.9-22.1C1537.9,1063.9,1533.5,1061.4,1531.7,1064
				L1531.7,1064z"/>
		</g>
	</g>
	
		<ellipse transform="matrix(0.9727 -0.2321 0.2321 0.9727 -255.5452 357.8515)" class="st15" cx="1393.2" cy="1265" rx="11.7" ry="15.9"/>
</g>
<g id="dog">
	<g>
		<path class="st29" d="M1351.6,1854.6"/>
		<g>
			<path class="st11" d="M1680.5,1733c-13.6,20.4-58.3,21.2-76.5,20.4c-18.2-0.8-11.5-2.2-67.2,0.2c-55.7,2.4-50.9-25.5-42.5-33.9
				c0,0,0,0,0,0s0,0,0,0c4.8-4.7,7.3-6.9,9.9-9.4c-7.6,2-14.9,4-21.8,6c-7.3,2.1-14.1,4.2-19.9,6.1c-40.9,13.6-107.5-9.8-125.7-65.1
				c-5.7-17.5-3.5-34.3,3.8-50.3c1.1-2.3,2.3-4.7,3.6-7c6.3-11.2,15.1-22,25.2-32.2c18.4-18.3,41.4-34.7,62.8-48.4
				c31.8-20.3,78-21.5,116.7-17.4c24.9,2.6,46.7,7.4,59.7,10.6c12.9,3.2,26.1,9.2,38.9,19.6v0c20.3,16.6,39.4,44.7,54.3,91.6
				C1725.9,1700.5,1694.1,1712.6,1680.5,1733z"/>
			<path class="st29" d="M1433.8,1761.1c0,0-25.6,2-16.4-28.4c9.2-30.4,24.8-38,2.4-53.2s-67.6-4.8-73.6-24.8s-11.3-30.8-11.3-30.8
				s-19.7,30.4-19,55.5c0.6,22.7,14.7,78.1,46.7,85.7S1432.2,1770.3,1433.8,1761.1z"/>
			<path class="st29" d="M1649.5,1726.3c0,0,16.9-14.4,57.9-9.6c0,0-14.6,23.4-32.9,22.7C1656.2,1738.8,1649.5,1726.3,1649.5,1726.3
				z"/>
			<path class="st29" d="M1588.9,1639.9c0,0-6.7-38.8,0-44.1c6.7-5.3,36.5,24.1,42.3,33S1588.9,1639.9,1588.9,1639.9z"/>
			<path class="st5" d="M1707.4,1716.7c0,0-45.6-13.3-54.9-5.4c-9.3,7.8-3,15.1-3,15.1S1695.3,1713.3,1707.4,1716.7z"/>
			<path class="st29" d="M1481.5,1737.6c1.5,10.8,15.1,15.5,22.3,7.3c2.1-2.4,3.4-5.8,2.8-10.4c-2.1-16.3-19.9-15.1-24.2-5.2
				C1481.2,1731.9,1481.1,1734.8,1481.5,1737.6z"/>
			<path class="st35" d="M1515.7,1746.3c3.1,1.3,28.3,5,38.5-6.6"/>
			<path class="st35" d="M1565.7,1699c0,0-9.5-5.9-9.5-19.6"/>
			<path class="st35" d="M1587.4,1719.8c0,0,5.5,12.4,15.9,13"/>
		</g>
		<path class="st29" d="M1504.2,1710.3c0,0,28.9-14.7,31.7-21.1c2.8-6.4,5.5-38.4,20.2-47.5c14.7-9.1,12.9-24.7-2-24.2
			c-14.9,0.5-67.2-5.7-60.2,13.4c7,19.2,19.3,3.1,19.6,30.6c0.3,27.5-2,40.5-20.3,47.2l-15.2,8.8L1504.2,1710.3z"/>
		<g>
			<g>
				<path class="st29" d="M1328.1,1647.7c-12.3,13.7-20.8,29.4-22.2,48c-1.5,19.8,3.9,39.5,9.3,58.3c0.9,3.1,5.7,1.8,4.8-1.3
					c-4.9-17.4-9.9-35.2-9.3-53.5c0.6-18.6,8.7-34.3,20.9-47.9C1333.8,1648.9,1330.2,1645.3,1328.1,1647.7L1328.1,1647.7z"/>
			</g>
		</g>
		<g>
			<g>
				<path class="st29" d="M1333.4,1693.2c-3.5-0.9-7-1.4-10.6-1.5c-1.3,0-2.6,1.2-2.5,2.5c0.2,5.5,4.1,8.3,6.7,12.7
					c3.1,5.6,2.8,12.4,4.8,18.4c3.8,11.2,12.2,21.4,19.7,30.5c7.4,9,16.3,16.1,27.5,19.9c11.9,4,24.7,4.4,37.2,4.7
					c3.2,0.1,3.2-4.9,0-5c-11.2-0.3-22.6-0.6-33.5-3.8c-11.4-3.3-20.2-10.2-27.6-19.3c-7-8.5-15.3-18.4-18.6-29.1
					c-1.7-5.2-1.7-10.9-3.7-16c-1.7-4.4-7.1-8.2-7.3-13c-0.8,0.8-1.7,1.7-2.5,2.5c3.2,0.1,6.2,0.6,9.3,1.4
					C1335.2,1698.9,1336.5,1694,1333.4,1693.2L1333.4,1693.2z"/>
			</g>
		</g>
		<g>
			<g>
				<path class="st29" d="M1386.1,1757.6c9.2,9.3,22.4,12.9,35.1,13.7c18.9,1.1,37.9-3.8,55.2-11c2.9-1.2,1.6-6-1.3-4.8
					c-16.2,6.7-33.5,11.4-51.1,10.9c-12.3-0.3-25.5-3.3-34.4-12.4C1387.4,1751.8,1383.9,1755.4,1386.1,1757.6L1386.1,1757.6z"/>
			</g>
		</g>
		<g>
			<g>
				<path class="st29" d="M1395.5,1759.1c12.6,2.2,25.5,3.8,38.3,3.7c12.2-0.1,21.9-5.1,32-11.5c2.7-1.7,0.2-6-2.5-4.3
					c-10,6.3-19.2,10.9-31.3,10.8c-11.8-0.2-23.6-1.5-35.2-3.5C1393.7,1753.7,1392.3,1758.5,1395.5,1759.1L1395.5,1759.1z"/>
			</g>
		</g>
	</g>
	<path class="st29" d="M1554.2,1536.3c-50.1-11.3-44.9,14-115.7,51c-70.8,37-69.1-19.4-69.1-19.4c18.4-18.3,41.4-34.7,62.8-48.4
		c31.8-20.3,78-21.5,116.7-17.4c24.9,2.6,46.7,7.4,59.7,10.6c12.9,3.2,26.1,9.2,38.9,19.6v0
		C1654.6,1576.2,1604.3,1547.6,1554.2,1536.3z"/>
</g>
</svg>
