<?xml version="1.0" encoding="utf-8"?>
<!-- Generator: Adobe Illustrator 19.0.0, SVG Export Plug-In . SVG Version: 6.00 Build 0)  -->
<svg version="1.1" id="Layer_1" xmlns="http://www.w3.org/2000/svg" xmlns:xlink="http://www.w3.org/1999/xlink" x="0px" y="0px"
	 viewBox="0 0 1984.3 1984.3" style="enable-background:new 0 0 1984.3 1984.3;" xml:space="preserve">
<style type="text/css">
	.st0{fill:#EBF5FC;}
	.st1{fill:url(#SVGID_1_);}
	.st2{fill:#9594C8;}
	.st3{fill:#C9DDF2;}
	.st4{fill:#FFFFFF;}
	.st5{fill:#394480;}
	.st6{fill:#2D3166;}
	.st7{fill:#F69D79;}
	.st8{fill:url(#SVGID_2_);}
	.st9{fill:#E57E80;}
	.st10{fill:#D37477;}
	.st11{fill:#F9B17C;}
	.st12{fill:#E9595A;}
	.st13{fill:#171339;}
	.st14{fill:#171338;}
	.st15{enable-background:new    ;}
	.st16{clip-path:url(#SVGID_4_);enable-background:new    ;}
	.st17{clip-path:url(#SVGID_6_);enable-background:new    ;}
	.st18{clip-path:url(#SVGID_8_);enable-background:new    ;}
	.st19{clip-path:url(#SVGID_10_);enable-background:new    ;}
	.st20{clip-path:url(#SVGID_12_);enable-background:new    ;}
	.st21{clip-path:url(#SVGID_14_);enable-background:new    ;}
	.st22{clip-path:url(#SVGID_16_);enable-background:new    ;}
	.st23{clip-path:url(#SVGID_18_);enable-background:new    ;}
	.st24{clip-path:url(#SVGID_20_);enable-background:new    ;}
	.st25{clip-path:url(#SVGID_22_);enable-background:new    ;}
	.st26{fill:#9E9EC5;}
	.st27{opacity:0.46;fill:#2D3166;}
	.st28{clip-path:url(#SVGID_24_);enable-background:new    ;}
</style>
<g id="background">
	<path class="st0" d="M1612.3,906.9c-29.7,228.3-197.9,187.4-452,228.2c-254,40.8-158.4,200-257.3,361.7
		c-99,161.7-267.2-3.3-306.8-115.5c-39.6-112.1-128.7-62.7-211.2-59.1c-82.5,3.6-69.3-68-69.3-68c19.3-69.3,79.5-105.4,146.7-173.7
		c1.7-1.7,3.3-3.4,5-5.2c69.3-71.7-48.3-137.6-152.5-251.6c-0.6-0.7-1.2-1.3-1.8-2c-54.1-61-50.4-143.2-20.1-216.6c0,0,0,0,0,0
		c19.5-47.3,50-91,83.1-123c30.4-29.4,63-49,91.3-52.6c17.7-2.2,39.1-0.6,63.2,3.8c19.4,3.6,40.4,8.9,62.7,15.6
		c5.5,1.6,11,3.4,16.7,5.1C726.8,491.4,870.7,558.5,967.2,583c48.6,12.3,90.6-2.7,132.3-28.5c12.8-7.9,25.6-16.9,38.6-26.4
		c26.2-19.2,53.1-40.7,82.1-60.4c13.2-9,26.9-17.7,41.2-25.6c33.2-18.4,69.6-32.9,111.1-38.8c5.1-0.7,10.3-1.3,15.5-1.8
		c28.2-2.4,53.6,1.9,76.4,11.7c3.2,1.4,6.4,2.9,9.5,4.5c11.5,6,22.2,13.4,32.3,22.1c15.6,13.6,29.5,30.3,41.8,49.4
		c9.4,14.8,17.9,31,25.4,48.4c3.1,7.2,6,14.6,8.8,22.2C1618.8,660.1,1627.3,791.8,1612.3,906.9z"/>
	<linearGradient id="SVGID_1_" gradientUnits="userSpaceOnUse" x1="221.0956" y1="650.078" x2="221.0956" y2="650.078">
		<stop  offset="0" style="stop-color:#FFFFFF"/>
		<stop  offset="1" style="stop-color:#FFFFFF;stop-opacity:0"/>
	</linearGradient>
	<path class="st1" d="M221.1,650.1"/>
	<path class="st2" d="M447.5,599.7c-6.4,1-12.5,1.9-18.5,2.8c-2.1,0.3-4.3,0.4-6.3,1c-2.2,0.7-3.1-0.3-4.2-2
		c-7.9-12.3-13.3-25.6-16.4-39.8c-0.3-1.6,0-2.6,1.4-3.6c6.5-4.6,12.9-9.3,19.3-14.2c0.9-0.7,1.3-2.1,1.6-3.2c0.2-0.9-0.2-2,0-2.9
		c1.2-5.3-1.4-8.4-5.7-11.1c-5.3-3.4-10.2-7.4-15.3-11c-1.3-0.9-1.6-1.8-1.3-3.3c3.1-14.6,8.8-28.2,16.9-40.8
		c0.9-1.4,1.9-1.5,3.3-1.3c7.9,1.3,15.8,2.4,23.6,3.7c1.5,0.3,2.5,0.1,3.5-1.1c0.6-0.8,1.2-1.6,2-2.1c5-3,4.8-7.3,3.8-12.3
		c-1.3-6.1-2-12.2-3-18.4c-0.2-1.4,0.2-2.2,1.4-3c12.5-8.1,26-13.7,40.5-16.9c1.6-0.3,2.6-0.1,3.6,1.3c4.6,6.5,9.3,12.9,14.2,19.3
		c0.7,0.9,2.1,1.4,3.2,1.6c1.2,0.3,2.5-0.2,3.7,0c4.7,1,7.4-1.2,9.8-5c3.5-5.4,7.6-10.5,11.3-15.8c1-1.4,2-1.9,3.7-1.5
		c14.5,3.2,28,8.8,40.5,16.9c1.2,0.8,1.6,1.5,1.4,3c-1.4,8-2.6,16.1-3.8,24.2c-0.1,0.9,0.3,2.2,1,3c1.2,1.4,2.8,2.5,3.9,4
		c2,2.8,4.3,3.2,7.5,2.5c7.1-1.4,14.3-2.3,21.5-3.5c1.4-0.2,2.3,0.1,3.1,1.4c8.2,12.6,13.9,26.3,16.9,41c0.2,0.9-0.6,2.3-1.3,2.9
		c-6.3,4.8-12.7,9.4-19.1,14c-1.5,1-2.2,2.1-1.9,4c0.2,1.3,0.3,2.7,0.1,4c-0.8,3.9,0.8,6.3,4.1,8.4c5.9,3.8,11.3,8.2,17,12.3
		c1.2,0.9,1.5,1.7,1.2,3.1c-3.2,14.6-8.7,28.2-16.9,40.8c-0.9,1.3-1.7,1.6-3.2,1.4c-8-1.4-16.1-2.6-24.2-3.8
		c-0.9-0.1-2.1,0.3-2.7,0.9c-2.1,1.9-4.1,3.9-6,6c-0.6,0.7-1,1.9-0.9,2.8c1.2,8.1,2.4,16.1,3.8,24.2c0.2,1.4,0,2.2-1.2,3.1
		c-12.6,8.2-26.3,13.9-41,16.9c-0.9,0.2-2.4-0.5-3-1.2c-4.8-6.4-9.5-12.8-14.1-19.3c-1-1.4-2.1-1.9-3.8-1.8c-1.8,0.2-3.6,0.3-5.3,0
		c-2.9-0.4-4.7,0.5-6.3,3c-4.1,6.1-8.7,11.9-12.9,17.9c-1.1,1.5-2,1.7-3.8,1.4c-14.3-3.1-27.5-8.6-39.8-16.4c-1.6-1-2.2-2-1.9-4.1
		c1.4-7.9,2.6-15.9,3.7-23.9c0.1-0.7-0.1-1.6-0.5-2.1c-2.2-2.3-4.5-4.6-6.8-6.8C448.4,600.1,447.8,599.9,447.5,599.7z M518.7,485.8
		c-27.8-0.1-51,22.8-51.2,50.5c-0.2,28.4,22.5,51.6,50.7,51.7c28.2,0.1,51.3-22.7,51.5-50.7C569.9,509,547,486,518.7,485.8z"/>
	<path class="st2" d="M289.7,536.5c-3.3,0.5-6.4,1-9.4,1.5c-1.1,0.2-2.2,0.2-3.2,0.5c-1.1,0.3-1.6-0.1-2.1-1c-4-6.3-6.8-13-8.4-20.3
		c-0.2-0.8,0-1.3,0.7-1.8c3.3-2.4,6.6-4.8,9.8-7.2c0.4-0.3,0.6-1.1,0.8-1.6c0.1-0.5-0.1-1,0-1.5c0.6-2.7-0.7-4.3-2.9-5.6
		c-2.7-1.7-5.2-3.8-7.8-5.6c-0.7-0.5-0.8-0.9-0.7-1.7c1.6-7.5,4.5-14.4,8.6-20.8c0.5-0.7,1-0.8,1.7-0.6c4,0.6,8,1.2,12,1.9
		c0.8,0.1,1.3,0,1.8-0.6c0.3-0.4,0.6-0.8,1-1.1c2.5-1.5,2.5-3.7,1.9-6.3c-0.7-3.1-1-6.2-1.5-9.4c-0.1-0.7,0.1-1.1,0.7-1.5
		c6.4-4.1,13.2-7,20.6-8.6c0.8-0.2,1.3,0,1.8,0.7c2.4,3.3,4.8,6.6,7.2,9.8c0.3,0.4,1,0.7,1.6,0.8c0.6,0.1,1.3-0.1,1.9,0
		c2.4,0.5,3.8-0.6,5-2.6c1.8-2.8,3.9-5.3,5.8-8c0.5-0.7,1-1,1.9-0.8c7.4,1.6,14.3,4.5,20.6,8.6c0.6,0.4,0.8,0.8,0.7,1.5
		c-0.7,4.1-1.3,8.2-1.9,12.3c-0.1,0.5,0.2,1.1,0.5,1.5c0.6,0.7,1.4,1.3,2,2c1,1.4,2.2,1.6,3.8,1.3c3.6-0.7,7.3-1.2,11-1.8
		c0.7-0.1,1.2,0.1,1.6,0.7c4.2,6.4,7.1,13.4,8.6,20.9c0.1,0.4-0.3,1.2-0.7,1.5c-3.2,2.4-6.5,4.8-9.7,7.1c-0.7,0.5-1.1,1.1-1,2
		c0.1,0.7,0.2,1.4,0,2c-0.4,2,0.4,3.2,2.1,4.3c3,2,5.8,4.2,8.7,6.3c0.6,0.4,0.8,0.9,0.6,1.6c-1.6,7.4-4.5,14.4-8.6,20.8
		c-0.4,0.7-0.9,0.8-1.6,0.7c-4.1-0.7-8.2-1.3-12.3-1.9c-0.4-0.1-1,0.2-1.4,0.5c-1.1,1-2.1,2-3.1,3.1c-0.3,0.3-0.5,1-0.4,1.4
		c0.6,4.1,1.2,8.2,1.9,12.3c0.1,0.7,0,1.1-0.6,1.6c-6.4,4.2-13.4,7.1-20.9,8.6c-0.5,0.1-1.2-0.2-1.5-0.6c-2.5-3.2-4.9-6.5-7.2-9.8
		c-0.5-0.7-1.1-1-1.9-0.9c-0.9,0.1-1.8,0.2-2.7,0c-1.5-0.2-2.4,0.3-3.2,1.5c-2.1,3.1-4.4,6.1-6.6,9.1c-0.5,0.8-1,0.9-1.9,0.7
		c-7.3-1.6-14-4.4-20.3-8.4c-0.8-0.5-1.1-1-0.9-2.1c0.7-4,1.3-8.1,1.9-12.2c0.1-0.3,0-0.8-0.3-1.1c-1.1-1.2-2.3-2.3-3.4-3.5
		C290.1,536.7,289.8,536.6,289.7,536.5z M325.9,478.5c-14.2-0.1-26,11.6-26.1,25.7c-0.1,14.5,11.5,26.3,25.9,26.4
		c14.4,0.1,26.1-11.6,26.2-25.9C352,490.3,340.4,478.5,325.9,478.5z"/>
	<path class="st2" d="M329.6,646.6c-2.1,0.3-4.1,0.6-6,0.9c-0.7,0.1-1.4,0.1-2.1,0.3c-0.7,0.2-1-0.1-1.4-0.6c-2.6-4-4.3-8.4-5.4-13
		c-0.1-0.5,0-0.8,0.5-1.2c2.1-1.5,4.2-3,6.3-4.6c0.3-0.2,0.4-0.7,0.5-1.1c0.1-0.3-0.1-0.6,0-0.9c0.4-1.7-0.5-2.7-1.9-3.6
		c-1.7-1.1-3.3-2.4-5-3.6c-0.4-0.3-0.5-0.6-0.4-1.1c1-4.8,2.9-9.2,5.5-13.3c0.3-0.5,0.6-0.5,1.1-0.4c2.6,0.4,5.1,0.8,7.7,1.2
		c0.5,0.1,0.8,0,1.1-0.4c0.2-0.3,0.4-0.5,0.7-0.7c1.6-1,1.6-2.4,1.2-4c-0.4-2-0.7-4-1-6c-0.1-0.5,0.1-0.7,0.5-1
		c4.1-2.6,8.5-4.5,13.2-5.5c0.5-0.1,0.8,0,1.2,0.4c1.5,2.1,3,4.2,4.6,6.3c0.2,0.3,0.7,0.4,1,0.5c0.4,0.1,0.8-0.1,1.2,0
		c1.5,0.3,2.4-0.4,3.2-1.6c1.1-1.8,2.5-3.4,3.7-5.1c0.3-0.5,0.7-0.6,1.2-0.5c4.7,1.1,9.2,2.9,13.2,5.5c0.4,0.3,0.5,0.5,0.4,1
		c-0.4,2.6-0.9,5.3-1.2,7.9c0,0.3,0.1,0.7,0.3,1c0.4,0.5,0.9,0.8,1.3,1.3c0.6,0.9,1.4,1,2.5,0.8c2.3-0.5,4.7-0.8,7-1.1
		c0.5-0.1,0.7,0,1,0.4c2.7,4.1,4.5,8.6,5.5,13.4c0.1,0.3-0.2,0.8-0.4,1c-2.1,1.6-4.1,3.1-6.2,4.6c-0.5,0.3-0.7,0.7-0.6,1.3
		c0.1,0.4,0.1,0.9,0,1.3c-0.3,1.3,0.3,2,1.3,2.8c1.9,1.3,3.7,2.7,5.6,4c0.4,0.3,0.5,0.6,0.4,1c-1,4.8-2.9,9.2-5.5,13.3
		c-0.3,0.4-0.5,0.5-1.1,0.4c-2.6-0.4-5.3-0.9-7.9-1.2c-0.3,0-0.7,0.1-0.9,0.3c-0.7,0.6-1.3,1.3-2,2c-0.2,0.2-0.3,0.6-0.3,0.9
		c0.4,2.6,0.8,5.3,1.2,7.9c0.1,0.5,0,0.7-0.4,1c-4.1,2.7-8.6,4.5-13.4,5.5c-0.3,0.1-0.8-0.2-1-0.4c-1.6-2.1-3.1-4.2-4.6-6.3
		c-0.3-0.5-0.7-0.6-1.2-0.6c-0.6,0.1-1.2,0.1-1.7,0c-0.9-0.1-1.5,0.2-2.1,1c-1.4,2-2.8,3.9-4.2,5.8c-0.3,0.5-0.7,0.6-1.2,0.4
		c-4.7-1-9-2.8-13-5.4c-0.5-0.3-0.7-0.7-0.6-1.3c0.5-2.6,0.8-5.2,1.2-7.8c0-0.2,0-0.5-0.2-0.7c-0.7-0.8-1.5-1.5-2.2-2.2
		C329.9,646.7,329.7,646.6,329.6,646.6z M352.8,609.4c-9.1,0-16.7,7.4-16.7,16.5c-0.1,9.3,7.4,16.8,16.6,16.9
		c9.2,0,16.8-7.4,16.8-16.6C369.5,617,362.1,609.5,352.8,609.4z"/>
	<path class="st3" d="M456.4,609.7c-6.4,1-12.5,1.9-18.5,2.8c-2.1,0.3-4.3,0.4-6.3,1c-2.2,0.7-3.1-0.3-4.2-2
		c-7.9-12.3-13.3-25.6-16.4-39.8c-0.3-1.6,0-2.6,1.4-3.6c6.5-4.6,12.9-9.3,19.3-14.2c0.9-0.7,1.3-2.1,1.6-3.2c0.2-0.9-0.2-2,0-2.9
		c1.2-5.3-1.4-8.4-5.7-11.1c-5.3-3.4-10.2-7.4-15.3-11c-1.3-0.9-1.6-1.8-1.3-3.3c3.1-14.6,8.8-28.2,16.9-40.8
		c0.9-1.4,1.9-1.5,3.3-1.3c7.9,1.3,15.8,2.4,23.6,3.7c1.5,0.3,2.5,0.1,3.5-1.1c0.6-0.8,1.2-1.6,2-2.1c5-3,4.8-7.3,3.8-12.3
		c-1.3-6.1-2-12.2-3-18.4c-0.2-1.4,0.2-2.2,1.4-3c12.5-8.1,26-13.7,40.5-16.9c1.6-0.3,2.6-0.1,3.6,1.3c4.6,6.5,9.3,12.9,14.2,19.3
		c0.7,0.9,2.1,1.4,3.2,1.6c1.2,0.3,2.5-0.2,3.7,0c4.7,1,7.4-1.2,9.8-5c3.5-5.4,7.6-10.5,11.3-15.8c1-1.4,2-1.9,3.7-1.5
		c14.5,3.2,28,8.8,40.5,16.9c1.2,0.8,1.6,1.5,1.4,3c-1.4,8-2.6,16.1-3.8,24.2c-0.1,0.9,0.3,2.2,1,3c1.2,1.4,2.8,2.5,3.9,4
		c2,2.8,4.3,3.2,7.5,2.5c7.1-1.4,14.3-2.3,21.5-3.5c1.4-0.2,2.3,0.1,3.1,1.4c8.2,12.6,13.9,26.3,16.9,41c0.2,0.9-0.6,2.3-1.3,2.9
		c-6.3,4.8-12.7,9.4-19.1,14c-1.5,1-2.2,2.1-1.9,4c0.2,1.3,0.3,2.7,0.1,4c-0.8,3.9,0.8,6.3,4.1,8.4c5.9,3.8,11.3,8.2,17,12.3
		c1.2,0.9,1.5,1.7,1.2,3.1c-3.2,14.6-8.7,28.2-16.9,40.8c-0.9,1.3-1.7,1.6-3.2,1.4c-8-1.4-16.1-2.6-24.2-3.8
		c-0.9-0.1-2.1,0.3-2.7,0.9c-2.1,1.9-4.1,3.9-6,6c-0.6,0.7-1,1.9-0.9,2.8c1.2,8.1,2.4,16.1,3.8,24.2c0.2,1.4,0,2.2-1.2,3.1
		c-12.6,8.2-26.3,13.9-41,16.9c-0.9,0.2-2.4-0.5-3-1.2c-4.8-6.4-9.5-12.8-14.1-19.3c-1-1.4-2.1-1.9-3.8-1.8c-1.8,0.2-3.6,0.3-5.3,0
		c-2.9-0.4-4.7,0.5-6.3,3c-4.1,6.1-8.7,11.9-12.9,17.9c-1.1,1.5-2,1.7-3.8,1.4c-14.3-3.1-27.5-8.6-39.8-16.4c-1.6-1-2.2-2-1.9-4.1
		c1.4-7.9,2.6-15.9,3.7-23.9c0.1-0.7-0.1-1.6-0.5-2.1c-2.2-2.3-4.5-4.6-6.8-6.8C457.2,610,456.6,609.9,456.4,609.7z M527.6,495.8
		c-27.8-0.1-51,22.8-51.2,50.5c-0.2,28.4,22.5,51.6,50.7,51.7c28.2,0.1,51.3-22.7,51.5-50.7C578.7,519,555.9,496,527.6,495.8z"/>
	<path class="st3" d="M298.5,546.5c-3.3,0.5-6.4,1-9.4,1.5c-1.1,0.2-2.2,0.2-3.2,0.5c-1.1,0.3-1.6-0.1-2.1-1c-4-6.3-6.8-13-8.4-20.3
		c-0.2-0.8,0-1.3,0.7-1.8c3.3-2.4,6.6-4.8,9.8-7.2c0.4-0.3,0.6-1.1,0.8-1.6c0.1-0.5-0.1-1,0-1.5c0.6-2.7-0.7-4.3-2.9-5.6
		c-2.7-1.7-5.2-3.8-7.8-5.6c-0.7-0.5-0.8-0.9-0.7-1.7c1.6-7.5,4.5-14.4,8.6-20.8c0.5-0.7,1-0.8,1.7-0.6c4,0.6,8,1.2,12,1.9
		c0.8,0.1,1.3,0,1.8-0.6c0.3-0.4,0.6-0.8,1-1.1c2.5-1.5,2.5-3.7,1.9-6.3c-0.7-3.1-1-6.2-1.5-9.4c-0.1-0.7,0.1-1.1,0.7-1.5
		c6.4-4.1,13.2-7,20.6-8.6c0.8-0.2,1.3,0,1.8,0.7c2.4,3.3,4.8,6.6,7.2,9.8c0.3,0.4,1,0.7,1.6,0.8c0.6,0.1,1.3-0.1,1.9,0
		c2.4,0.5,3.8-0.6,5-2.6c1.8-2.8,3.9-5.3,5.8-8c0.5-0.7,1-1,1.9-0.8c7.4,1.6,14.3,4.5,20.6,8.6c0.6,0.4,0.8,0.8,0.7,1.5
		c-0.7,4.1-1.3,8.2-1.9,12.3c-0.1,0.5,0.2,1.1,0.5,1.5c0.6,0.7,1.4,1.3,2,2c1,1.4,2.2,1.6,3.8,1.3c3.6-0.7,7.3-1.2,11-1.8
		c0.7-0.1,1.2,0.1,1.6,0.7c4.2,6.4,7.1,13.4,8.6,20.9c0.1,0.4-0.3,1.2-0.7,1.5c-3.2,2.4-6.5,4.8-9.7,7.1c-0.7,0.5-1.1,1.1-1,2
		c0.1,0.7,0.2,1.4,0,2c-0.4,2,0.4,3.2,2.1,4.3c3,2,5.8,4.2,8.7,6.3c0.6,0.4,0.8,0.9,0.6,1.6c-1.6,7.4-4.5,14.4-8.6,20.8
		c-0.4,0.7-0.9,0.8-1.6,0.7c-4.1-0.7-8.2-1.3-12.3-1.9c-0.4-0.1-1,0.2-1.4,0.5c-1.1,1-2.1,2-3.1,3.1c-0.3,0.3-0.5,1-0.4,1.4
		c0.6,4.1,1.2,8.2,1.9,12.3c0.1,0.7,0,1.1-0.6,1.6c-6.4,4.2-13.4,7.1-20.9,8.6c-0.5,0.1-1.2-0.2-1.5-0.6c-2.5-3.2-4.9-6.5-7.2-9.8
		c-0.5-0.7-1.1-1-1.9-0.9c-0.9,0.1-1.8,0.2-2.7,0c-1.5-0.2-2.4,0.3-3.2,1.5c-2.1,3.1-4.4,6.1-6.6,9.1c-0.5,0.8-1,0.9-1.9,0.7
		c-7.3-1.6-14-4.4-20.3-8.4c-0.8-0.5-1.1-1-0.9-2.1c0.7-4,1.3-8.1,1.9-12.2c0.1-0.3,0-0.8-0.3-1.1c-1.1-1.2-2.3-2.3-3.4-3.5
		C298.9,546.7,298.6,546.6,298.5,546.5z M334.8,488.5c-14.2-0.1-26,11.6-26.1,25.7c-0.1,14.5,11.5,26.3,25.9,26.4
		c14.4,0.1,26.1-11.6,26.2-25.9C360.9,500.3,349.2,488.5,334.8,488.5z"/>
	<path class="st3" d="M336.6,654.5c-2.1,0.3-4.1,0.6-6,0.9c-0.7,0.1-1.4,0.1-2.1,0.3c-0.7,0.2-1-0.1-1.4-0.6c-2.6-4-4.3-8.4-5.4-13
		c-0.1-0.5,0-0.8,0.5-1.2c2.1-1.5,4.2-3,6.3-4.6c0.3-0.2,0.4-0.7,0.5-1.1c0.1-0.3-0.1-0.6,0-0.9c0.4-1.7-0.5-2.7-1.9-3.6
		c-1.7-1.1-3.3-2.4-5-3.6c-0.4-0.3-0.5-0.6-0.4-1.1c1-4.8,2.9-9.2,5.5-13.3c0.3-0.5,0.6-0.5,1.1-0.4c2.6,0.4,5.1,0.8,7.7,1.2
		c0.5,0.1,0.8,0,1.1-0.4c0.2-0.3,0.4-0.5,0.7-0.7c1.6-1,1.6-2.4,1.2-4c-0.4-2-0.7-4-1-6c-0.1-0.5,0.1-0.7,0.5-1
		c4.1-2.6,8.5-4.5,13.2-5.5c0.5-0.1,0.8,0,1.2,0.4c1.5,2.1,3,4.2,4.6,6.3c0.2,0.3,0.7,0.4,1,0.5c0.4,0.1,0.8-0.1,1.2,0
		c1.5,0.3,2.4-0.4,3.2-1.6c1.1-1.8,2.5-3.4,3.7-5.1c0.3-0.5,0.7-0.6,1.2-0.5c4.7,1.1,9.2,2.9,13.2,5.5c0.4,0.3,0.5,0.5,0.4,1
		c-0.4,2.6-0.9,5.3-1.2,7.9c0,0.3,0.1,0.7,0.3,1c0.4,0.5,0.9,0.8,1.3,1.3c0.6,0.9,1.4,1,2.5,0.8c2.3-0.5,4.7-0.8,7-1.1
		c0.5-0.1,0.7,0,1,0.4c2.7,4.1,4.5,8.6,5.5,13.4c0.1,0.3-0.2,0.8-0.4,1c-2.1,1.6-4.1,3.1-6.2,4.6c-0.5,0.3-0.7,0.7-0.6,1.3
		c0.1,0.4,0.1,0.9,0,1.3c-0.3,1.3,0.3,2,1.3,2.8c1.9,1.3,3.7,2.7,5.6,4c0.4,0.3,0.5,0.6,0.4,1c-1,4.8-2.9,9.2-5.5,13.3
		c-0.3,0.4-0.5,0.5-1.1,0.4c-2.6-0.4-5.3-0.9-7.9-1.2c-0.3,0-0.7,0.1-0.9,0.3c-0.7,0.6-1.3,1.3-2,2c-0.2,0.2-0.3,0.6-0.3,0.9
		c0.4,2.6,0.8,5.3,1.2,7.9c0.1,0.5,0,0.7-0.4,1c-4.1,2.7-8.6,4.5-13.4,5.5c-0.3,0.1-0.8-0.2-1-0.4c-1.6-2.1-3.1-4.2-4.6-6.3
		c-0.3-0.5-0.7-0.6-1.2-0.6c-0.6,0.1-1.2,0.1-1.7,0c-0.9-0.1-1.5,0.2-2.1,1c-1.4,2-2.8,3.9-4.2,5.8c-0.3,0.5-0.7,0.6-1.2,0.4
		c-4.7-1-9-2.8-13-5.4c-0.5-0.3-0.7-0.7-0.6-1.3c0.5-2.6,0.8-5.2,1.2-7.8c0-0.2,0-0.5-0.2-0.7c-0.7-0.8-1.5-1.5-2.2-2.2
		C336.8,654.6,336.6,654.5,336.6,654.5z M359.8,617.3c-9.1,0-16.7,7.4-16.7,16.5c-0.1,9.3,7.4,16.8,16.6,16.9
		c9.2,0,16.8-7.4,16.8-16.6C376.5,624.8,369,617.3,359.8,617.3z"/>
	<path class="st0" d="M764.3,851.5"/>
	<path class="st4" d="M1314.7,551.8c4-0.6,7.8-1.2,11.6-1.8c1.3-0.2,2.7-0.3,3.9-0.6c1.4-0.4,2,0.2,2.6,1.2
		c4.9,7.7,8.3,16,10.3,24.9c0.2,1,0,1.6-0.9,2.2c-4.1,2.9-8.1,5.8-12.1,8.8c-0.5,0.4-0.8,1.3-1,2c-0.2,0.6,0.1,1.2,0,1.8
		c-0.7,3.3,0.9,5.2,3.6,6.9c3.3,2.1,6.4,4.6,9.6,6.9c0.8,0.6,1,1.2,0.8,2.1c-2,9.1-5.5,17.6-10.6,25.5c-0.6,0.9-1.2,0.9-2.1,0.8
		c-4.9-0.8-9.9-1.5-14.8-2.3c-0.9-0.2-1.6,0-2.2,0.7c-0.4,0.5-0.7,1-1.3,1.3c-3.1,1.9-3,4.6-2.4,7.7c0.8,3.8,1.3,7.7,1.9,11.5
		c0.2,0.9-0.1,1.4-0.9,1.9c-7.8,5.1-16.2,8.6-25.3,10.5c-1,0.2-1.6,0.1-2.2-0.8c-2.9-4.1-5.8-8.1-8.8-12.1c-0.4-0.5-1.3-0.9-2-1
		c-0.7-0.2-1.6,0.1-2.3,0c-2.9-0.6-4.6,0.7-6.1,3.1c-2.2,3.4-4.8,6.5-7.1,9.8c-0.6,0.9-1.2,1.2-2.3,1c-9.1-2-17.5-5.5-25.3-10.6
		c-0.8-0.5-1-0.9-0.8-1.9c0.8-5,1.6-10.1,2.4-15.1c0.1-0.6-0.2-1.4-0.6-1.9c-0.7-0.9-1.8-1.6-2.4-2.5c-1.2-1.7-2.7-2-4.7-1.6
		c-4.5,0.9-9,1.5-13.4,2.2c-0.9,0.1-1.4-0.1-1.9-0.8c-5.1-7.9-8.7-16.4-10.5-25.7c-0.1-0.5,0.4-1.5,0.8-1.8c3.9-3,7.9-5.9,11.9-8.8
		c0.9-0.7,1.4-1.3,1.2-2.5c-0.1-0.8-0.2-1.7,0-2.5c0.5-2.5-0.5-3.9-2.6-5.3c-3.7-2.4-7.1-5.1-10.7-7.7c-0.8-0.5-0.9-1.1-0.7-1.9
		c2-9.1,5.5-17.6,10.6-25.5c0.5-0.8,1-1,2-0.9c5,0.9,10.1,1.6,15.1,2.4c0.5,0.1,1.3-0.2,1.7-0.6c1.3-1.2,2.6-2.4,3.8-3.8
		c0.4-0.4,0.6-1.2,0.5-1.7c-0.7-5-1.5-10.1-2.4-15.1c-0.1-0.9,0-1.4,0.8-1.9c7.9-5.1,16.4-8.7,25.6-10.6c0.6-0.1,1.5,0.3,1.9,0.8
		c3,4,6,8,8.8,12.1c0.6,0.9,1.3,1.2,2.3,1.1c1.1-0.1,2.2-0.2,3.3,0c1.8,0.3,2.9-0.3,4-1.9c2.6-3.8,5.4-7.4,8.1-11.2
		c0.7-0.9,1.3-1.1,2.3-0.8c8.9,1.9,17.2,5.4,24.9,10.3c1,0.7,1.4,1.3,1.2,2.5c-0.9,5-1.6,10-2.3,14.9c-0.1,0.4,0,1,0.3,1.3
		c1.4,1.5,2.8,2.9,4.2,4.2C1314.2,551.6,1314.6,551.7,1314.7,551.8z M1270.2,623c17.4,0.1,31.9-14.2,32-31.6
		c0.1-17.8-14.1-32.2-31.7-32.3c-17.6-0.1-32.1,14.2-32.2,31.7C1238.3,608.5,1252.5,622.9,1270.2,623z"/>
	<path class="st4" d="M1572.9,538c0.1-0.1,0.3-0.2,0.4-0.3c-7.5-17.4-15.9-33.6-25.4-48.4c-9.8,18.8-29.7,31.8-52.1,31.7
		c-32.5-0.2-58.6-26.5-58.4-59c0.1-20.5,10.9-38.5,27-48.8c-22.7-9.8-48.2-14.2-76.4-11.7c-5.3,0.5-10.4,1-15.5,1.8
		c-4.7,9.8-8.2,20.1-10.5,30.9c-0.3,1.6,0,2.6,1.4,3.6c6.5,4.7,12.8,9.7,19.5,14.1c3.8,2.5,5.6,5.1,4.7,9.7
		c-0.3,1.5-0.1,3.1,0.1,4.6c0.3,2.1-0.5,3.3-2.2,4.5c-7.4,5.3-14.7,10.6-21.9,16.1c-0.9,0.7-1.7,2.4-1.5,3.4
		c3.4,16.9,9.9,32.5,19.3,47c0.9,1.4,1.9,1.8,3.5,1.6c8.2-1.4,16.5-2.4,24.6-4c3.7-0.7,6.4-0.3,8.6,2.9c1.2,1.7,3.1,2.9,4.5,4.6
		c0.7,0.9,1.2,2.3,1.1,3.4c-1.3,9.2-2.8,18.5-4.3,27.7c-0.3,1.7,0.2,2.5,1.5,3.4c14.3,9.3,29.8,15.7,46.4,19.4
		c2,0.4,3.1-0.1,4.3-1.8c4.3-6.1,9-11.8,13-18.1c2.8-4.4,5.9-6.9,11.3-5.7c1.4,0.3,2.9-0.3,4.2,0c1.3,0.3,2.9,0.9,3.7,1.9
		c5.5,7.3,10.9,14.7,16.2,22.1c1.2,1.6,2.3,1.9,4.1,1.5c16.6-3.6,32.1-10,46.4-19.3c1.4-0.9,1.9-1.8,1.6-3.5c-1.2-7-2-14.1-3.5-21
		C1567.3,546.4,1567.2,541.4,1572.9,538z"/>
	<path class="st4" d="M1462.5,667.4c2.6-0.4,5.1-0.8,7.6-1.2c0.9-0.1,1.8-0.2,2.6-0.4c0.9-0.3,1.3,0.1,1.7,0.8
		c3.2,5.1,5.5,10.5,6.8,16.4c0.1,0.7,0,1.1-0.6,1.5c-2.7,1.9-5.3,3.8-8,5.8c-0.4,0.3-0.5,0.9-0.7,1.3c-0.1,0.4,0.1,0.8,0,1.2
		c-0.5,2.2,0.6,3.5,2.3,4.6c2.2,1.4,4.2,3,6.3,4.5c0.5,0.4,0.7,0.8,0.5,1.4c-1.3,6-3.6,11.6-7,16.8c-0.4,0.6-0.8,0.6-1.4,0.5
		c-3.2-0.5-6.5-1-9.7-1.5c-0.6-0.1-1,0-1.4,0.5c-0.2,0.3-0.5,0.7-0.8,0.9c-2.1,1.2-2,3-1.5,5.1c0.5,2.5,0.8,5,1.3,7.6
		c0.1,0.6-0.1,0.9-0.6,1.2c-5.1,3.3-10.7,5.6-16.7,6.9c-0.6,0.1-1.1,0-1.5-0.5c-1.9-2.7-3.8-5.3-5.8-8c-0.3-0.4-0.8-0.6-1.3-0.7
		c-0.5-0.1-1,0.1-1.5,0c-1.9-0.4-3,0.5-4.1,2.1c-1.4,2.2-3.1,4.3-4.7,6.5c-0.4,0.6-0.8,0.8-1.5,0.6c-6-1.3-11.5-3.6-16.7-7
		c-0.5-0.3-0.7-0.6-0.6-1.2c0.6-3.3,1.1-6.6,1.5-10c0.1-0.4-0.1-0.9-0.4-1.2c-0.5-0.6-1.2-1-1.6-1.6c-0.8-1.1-1.8-1.3-3.1-1.1
		c-2.9,0.6-5.9,1-8.9,1.4c-0.6,0.1-0.9-0.1-1.3-0.6c-3.4-5.2-5.7-10.8-7-16.9c-0.1-0.4,0.2-1,0.5-1.2c2.6-2,5.2-3.9,7.9-5.8
		c0.6-0.4,0.9-0.9,0.8-1.6c-0.1-0.5-0.1-1.1,0-1.6c0.3-1.6-0.3-2.6-1.7-3.5c-2.4-1.6-4.7-3.4-7-5.1c-0.5-0.4-0.6-0.7-0.5-1.3
		c1.3-6,3.6-11.6,7-16.8c0.4-0.5,0.7-0.7,1.3-0.6c3.3,0.6,6.6,1.1,10,1.6c0.4,0.1,0.8-0.1,1.1-0.4c0.9-0.8,1.7-1.6,2.5-2.5
		c0.2-0.3,0.4-0.8,0.4-1.1c-0.5-3.3-1-6.6-1.6-10c-0.1-0.6,0-0.9,0.5-1.3c5.2-3.4,10.8-5.7,16.9-7c0.4-0.1,1,0.2,1.2,0.5
		c2,2.6,3.9,5.3,5.8,8c0.4,0.6,0.8,0.8,1.5,0.7c0.7-0.1,1.5-0.1,2.2,0c1.2,0.2,1.9-0.2,2.6-1.2c1.7-2.5,3.6-4.9,5.3-7.4
		c0.4-0.6,0.8-0.7,1.5-0.6c5.9,1.3,11.3,3.5,16.4,6.8c0.7,0.4,0.9,0.8,0.8,1.7c-0.6,3.3-1.1,6.6-1.5,9.8c0,0.3,0,0.7,0.2,0.9
		c0.9,1,1.8,1.9,2.8,2.8C1462.1,667.2,1462.4,667.3,1462.5,667.4z M1433.1,714.3c11.5,0.1,21-9.4,21.1-20.8
		c0.1-11.7-9.3-21.2-20.9-21.3c-11.6-0.1-21.1,9.3-21.2,20.9C1412.1,704.8,1421.5,714.3,1433.1,714.3z"/>
	<path class="st4" d="M640.1,1143.8c4.8-0.7,9.3-1.4,13.8-2.1c1.6-0.2,3.2-0.3,4.7-0.8c1.6-0.5,2.3,0.2,3.1,1.5
		c5.9,9.2,9.9,19.1,12.3,29.8c0.3,1.2,0,1.9-1,2.7c-4.9,3.5-9.7,7-14.4,10.6c-0.6,0.5-1,1.5-1.2,2.4c-0.2,0.7,0.1,1.5,0,2.2
		c-0.9,4,1.1,6.3,4.3,8.3c4,2.5,7.6,5.5,11.5,8.2c1,0.7,1.2,1.4,1,2.5c-2.4,10.9-6.6,21.1-12.6,30.5c-0.7,1.1-1.4,1.1-2.5,0.9
		c-5.9-0.9-11.8-1.8-17.7-2.8c-1.1-0.2-1.9-0.1-2.6,0.8c-0.4,0.6-0.9,1.2-1.5,1.6c-3.7,2.3-3.6,5.5-2.8,9.2c1,4.5,1.5,9.1,2.3,13.7
		c0.2,1.1-0.1,1.7-1,2.3c-9.3,6.1-19.4,10.2-30.3,12.6c-1.2,0.3-1.9,0.1-2.7-1c-3.5-4.9-7-9.7-10.6-14.4c-0.5-0.6-1.5-1-2.4-1.2
		c-0.9-0.2-1.9,0.2-2.8,0c-3.5-0.7-5.5,0.9-7.3,3.8c-2.6,4.1-5.7,7.8-8.5,11.8c-0.8,1.1-1.5,1.4-2.8,1.1
		c-10.8-2.4-20.9-6.5-30.3-12.6c-0.9-0.6-1.2-1.1-1-2.2c1-6,2-12,2.8-18.1c0.1-0.7-0.3-1.6-0.7-2.2c-0.9-1.1-2.1-1.9-2.9-3
		c-1.5-2.1-3.2-2.4-5.6-1.9c-5.3,1-10.7,1.7-16.1,2.6c-1.1,0.2-1.7-0.1-2.3-1c-6.1-9.4-10.4-19.6-12.6-30.7c-0.1-0.7,0.4-1.8,1-2.2
		c4.7-3.6,9.5-7,14.3-10.5c1.1-0.8,1.6-1.6,1.4-3c-0.1-1-0.3-2-0.1-3c0.6-2.9-0.6-4.7-3.1-6.3c-4.4-2.9-8.5-6.1-12.7-9.2
		c-0.9-0.6-1.1-1.3-0.9-2.3c2.4-10.9,6.5-21.1,12.6-30.5c0.6-1,1.3-1.2,2.4-1c6,1,12,1.9,18.1,2.8c0.6,0.1,1.5-0.2,2-0.7
		c1.6-1.4,3.1-2.9,4.5-4.5c0.4-0.5,0.7-1.4,0.6-2.1c-0.9-6-1.8-12-2.8-18.1c-0.2-1.1,0-1.7,0.9-2.3c9.4-6.1,19.6-10.4,30.7-12.6
		c0.7-0.1,1.8,0.4,2.2,0.9c3.6,4.8,7.1,9.6,10.6,14.4c0.8,1.1,1.5,1.5,2.8,1.3c1.3-0.1,2.7-0.2,4,0c2.2,0.3,3.5-0.4,4.7-2.2
		c3.1-4.5,6.5-8.9,9.7-13.4c0.8-1.1,1.5-1.3,2.8-1c10.7,2.3,20.6,6.4,29.8,12.3c1.2,0.8,1.7,1.5,1.4,3c-1,5.9-1.9,11.9-2.8,17.9
		c-0.1,0.5,0,1.2,0.4,1.6c1.6,1.7,3.3,3.4,5,5.1C639.4,1143.6,639.9,1143.7,640.1,1143.8z M586.9,1228.9c20.8,0.1,38.1-17,38.3-37.7
		c0.1-21.2-16.8-38.5-37.9-38.7c-21.1-0.1-38.3,16.9-38.5,37.9C548.6,1211.6,565.7,1228.8,586.9,1228.9z"/>
	<path class="st4" d="M461.8,1204.5c3.2-0.5,6.1-0.9,9.1-1.4c1-0.2,2.1-0.2,3.1-0.5c1.1-0.3,1.5,0.1,2.1,1
		c3.9,6.1,6.5,12.6,8.1,19.6c0.2,0.8,0,1.3-0.7,1.7c-3.2,2.3-6.4,4.6-9.5,7c-0.4,0.3-0.6,1-0.8,1.6c-0.1,0.4,0.1,1,0,1.4
		c-0.6,2.6,0.7,4.1,2.8,5.5c2.6,1.7,5,3.6,7.6,5.4c0.6,0.5,0.8,0.9,0.6,1.6c-1.5,7.2-4.3,13.9-8.3,20.1c-0.5,0.7-0.9,0.7-1.6,0.6
		c-3.9-0.6-7.8-1.2-11.6-1.8c-0.7-0.1-1.2,0-1.7,0.6c-0.3,0.4-0.6,0.8-1,1c-2.5,1.5-2.4,3.6-1.9,6.1c0.6,3,1,6,1.5,9
		c0.1,0.7-0.1,1.1-0.7,1.5c-6.1,4-12.8,6.7-20,8.3c-0.8,0.2-1.3,0-1.8-0.7c-2.3-3.2-4.6-6.4-7-9.5c-0.3-0.4-1-0.7-1.6-0.8
		c-0.6-0.1-1.2,0.1-1.8,0c-2.3-0.5-3.6,0.6-4.8,2.5c-1.7,2.7-3.7,5.2-5.6,7.8c-0.5,0.7-1,0.9-1.8,0.8c-7.1-1.6-13.8-4.3-19.9-8.3
		c-0.6-0.4-0.8-0.7-0.7-1.5c0.7-4,1.3-7.9,1.9-11.9c0.1-0.5-0.2-1.1-0.5-1.5c-0.6-0.7-1.4-1.2-1.9-2c-1-1.4-2.1-1.6-3.7-1.3
		c-3.5,0.7-7.1,1.1-10.6,1.7c-0.7,0.1-1.1-0.1-1.5-0.7c-4-6.2-6.8-13-8.3-20.2c-0.1-0.4,0.3-1.2,0.7-1.4c3.1-2.3,6.2-4.6,9.4-6.9
		c0.7-0.5,1.1-1.1,0.9-2c-0.1-0.6-0.2-1.3,0-2c0.4-1.9-0.4-3.1-2-4.1c-2.9-1.9-5.6-4.1-8.4-6.1c-0.6-0.4-0.7-0.8-0.6-1.5
		c1.6-7.2,4.3-13.9,8.3-20.1c0.4-0.7,0.8-0.8,1.6-0.7c4,0.7,7.9,1.3,11.9,1.9c0.4,0.1,1-0.2,1.3-0.5c1-0.9,2-1.9,3-3
		c0.3-0.3,0.5-0.9,0.4-1.4c-0.6-4-1.2-7.9-1.9-11.9c-0.1-0.7,0-1.1,0.6-1.5c6.2-4.1,12.9-6.8,20.2-8.3c0.4-0.1,1.2,0.2,1.5,0.6
		c2.4,3.1,4.7,6.3,7,9.5c0.5,0.7,1,1,1.9,0.9c0.9-0.1,1.8-0.1,2.6,0c1.4,0.2,2.3-0.3,3.1-1.5c2-3,4.3-5.9,6.4-8.8
		c0.5-0.7,1-0.8,1.9-0.7c7,1.5,13.6,4.2,19.6,8.1c0.8,0.5,1.1,1,0.9,2c-0.7,3.9-1.3,7.8-1.8,11.8c0,0.3,0,0.8,0.2,1
		c1.1,1.2,2.2,2.2,3.3,3.3C461.4,1204.3,461.7,1204.4,461.8,1204.5z M426.7,1260.6c13.7,0.1,25.1-11.2,25.2-24.9
		c0.1-14-11.1-25.4-25-25.5c-13.9-0.1-25.3,11.2-25.3,25C401.5,1249.2,412.8,1260.5,426.7,1260.6z"/>
</g>
<g id="character">
	<path class="st3" d="M1027.2,1719.6c0,0,147.8,1.2,211.2,0c63.4-1.2,98.6-18,63.9-21c-34.7-3.1-250.5-21-262.8,0
		C1027.2,1719.6,1027.2,1719.6,1027.2,1719.6z"/>
	<path class="st3" d="M791.6,1678.8c-5.5,9.4,1.2,21.1,12.1,21.2c44.6,0.3,139.4,0.8,186.8-0.2c63.4-1.2,98.6-18,63.9-21
		C1019.6,1675.8,803.8,1657.8,791.6,1678.8L791.6,1678.8z"/>
	<g>
		<path class="st5" d="M942.9,1576.8c0,0,5,50.9,8.4,65.9c3.7,16.3,12.8,44.9-4,45.2c-16.8,0.3-161.1,15.1-161.3,4.6
			c-0.2-10.5-5.5-21.3,8.4-24.4c13.9-3.1,62.7-6.7,80.9-13c25.7-8.9,35.9-22.4,34.4-30c-1.5-7.7-4.4-47.5-4.4-47.5L942.9,1576.8z"/>
		<path class="st6" d="M786,1692.5c0,0-3.1-4.5-0.1-6.1c3-1.5,37.2,6.7,62,4.8s108.4-5,108.8-11.8l0.8,14c0,0-166.2,9-171.4,3.4
			L786,1692.5z"/>
		<g>
			<path class="st6" d="M860.2,1659.3c7.8-8,21.3-6,24.7,5.2c0.9,3.1,5.8,1.8,4.8-1.3c-4.5-14.8-22.5-18.1-33.1-7.4
				C854.4,1658.1,857.9,1661.6,860.2,1659.3L860.2,1659.3z"/>
		</g>
		<g>
			<path class="st6" d="M831.5,1662.5c1.5-4.4,12.8-3.4,16-2.4c5.5,1.8,9.7,6.4,9.9,12.3c0.1,3.2,5.1,3.2,5,0
				c-0.4-8.4-6.3-15.2-14.4-17.4c-6.3-1.7-18.9-1.5-21.4,6.1C825.7,1664.3,830.5,1665.6,831.5,1662.5L831.5,1662.5z"/>
		</g>
	</g>
	<path class="st7" d="M981.3,759.5c0,0-32.2,11-32.9,17.4s0,88.2,0,88.2l37.1-98.6l2.8-8.3L981.3,759.5z"/>
	<path class="st7" d="M1031,755.9c0,0-32-2.8-31,1.3c1.1,4.1,2.9,10.9,2.9,10.9l15.5,8.8L1031,755.9z"/>
	<radialGradient id="SVGID_2_" cx="736.9204" cy="813.6061" r="558.2888" gradientUnits="userSpaceOnUse">
		<stop  offset="0" style="stop-color:#FFFFFF"/>
		<stop  offset="1" style="stop-color:#FFFFFF;stop-opacity:0"/>
	</radialGradient>
	<path class="st8" d="M860.7,221.4L765,808.9l-25.9,36.5l-568.7,250.8c0,0-241.7-374.8-19.9-695.3S860.7,221.4,860.7,221.4z"/>
	<path class="st6" d="M1006.7,1128.9l-49.1,486.5c0,0-64.9,24.7-77.4,3.9s62.7-574.1,62.7-574.1L1006.7,1128.9z"/>
	<path class="st9" d="M985,1075.8c0,0-1.3,48.6,6.6,50.4c7.9,1.8,32.7,5.6,34.8-1c2.1-6.6-13.8-50.2-13.8-50.2L985,1075.8z"/>
	<path class="st5" d="M1150.5,1570.5c0,0-57.2,29.5-81.1,23.8c-11.8-2.8-70.5-121.9-97.8-248.3c-1-4.8-2-9.5-3-14.3
		c-6-29.8-11-60.1-15-88.9c-1.1-7.7-2.1-15.4-3-22.8c-10.4-81.7-13.2-146.3-13.2-146.3l46.7-2.3h0l31.5-1.6l27.2-1.4
		c0,0-1,58.7,4.3,134.6c0.5,6.7,1,13.6,1.6,20.5c3.1,37.8,4.1,30.1,4.1,87.4c0,0,55.1,164.6,77.8,215.9
		C1142.1,1553,1150.5,1570.5,1150.5,1570.5z"/>
	<path class="st10" d="M1006.4,720.2c0,0-6.3,39.6,2.5,53.9c8.8,14.2-20.2,7.6-27.9,6.6c-7.7-1,6.1-38.9,9.8-59.3
		C994.5,700.9,1006.4,720.2,1006.4,720.2z"/>
	<path class="st7" d="M983.5,800.7c0,0-15.4,0.5-23.1,26.5S864.3,1079,864.3,1079s103.2,6.3,117.1-4.7
		c13.9-11,25.2-280.3,25.2-280.3l-8.3-23.8L983.5,800.7z"/>
	<polygon class="st7" points="951.5,880.1 864.7,880.1 845.2,913.6 950.9,946.2 	"/>
	<polygon class="st5" points="821.2,883.2 831.3,869.8 791.2,847 783.8,854.4 	"/>
	<polygon class="st5" points="764.7,844.2 739.1,845.4 765,808.9 780.6,839.3 	"/>
	<path class="st11" d="M988.3,762.2c9.3-4.8,20.5,9.4,30.1,5.4c8.6-3.6,12-19.2,13.9-7.6c2.7,16.8-0.4,123.9,17.8,195.5
		c17.7,69.8,9.6,137.4,7.5,145c-1.4,4.9-8.5,25.4-37.7,10.6c-71.8-36.2-127.8,3.6-124-17.2c24.2-133.9,45.4-307.6,68.7-317
		C973.9,773.2,981.9,765.5,988.3,762.2z"/>
	<path class="st9" d="M983.5,633.2c-1.8,1.9-3.7,3.8-5.6,5.6c-11.1,10.3-44.2,44.5-26.7,71.1c15.1,22.8,57.8,22.4,67,5.6
		c9.2-16.8,34-62.3,15.1-72.2C1015.3,633.8,999.8,615.7,983.5,633.2z"/>
	<path class="st12" d="M969.1,647.7c0,0-20.6,18.2-32.5,21.6c-9.6,2.8,12.3,23.8,17,15.6C958.3,676.6,969.1,647.7,969.1,647.7z"/>
	
		<ellipse transform="matrix(0.8294 0.5587 -0.5587 0.8294 538.4617 -438.0335)" class="st13" cx="986.4" cy="662.6" rx="5.2" ry="12.7"/>
	<circle class="st13" cx="967.4" cy="706.5" r="5.8"/>
	<path class="st14" d="M1020.5,647.9c0,0-15.9-9.6-32.2-18.9c-31.5-17.9-19.4-25.6-4.1-30.4c59.4-18.6,35.8-6,55,17.9
		c19.2,23.9,18.4,35.2,27.5,34.9c29.1-0.7-31.1,32.1-21.8,48.6c4.7,8.4-27.3,28.9-26.6,15.4s17.5-18,12.9-40.1
		C1026.7,653.2,1020.5,647.9,1020.5,647.9z"/>
	<path class="st5" d="M1110.6,1540.6c0,0,28,42.8,38,54.5c10.8,12.7,32.2,33.8,17.4,41.9c-14.7,8.1-135.8,88-140.9,78.8
		c-5-9.2-14.7-16.3-3.8-25.5c10.9-9.2,52.4-35,65.7-49c18.7-19.8,21.5-36.5,16.5-42.6c-4.9-6.1-25.9-40-25.9-40L1110.6,1540.6z"/>
	<path class="st6" d="M1025.1,1715.8c0,0-4.8-2.6-2.9-5.3c1.9-2.7,36-11.3,57.2-24.5c21.2-13.2,93.7-54.7,90.9-60.9l7.2,12
		c0,0-143.1,85-150.3,82.4L1025.1,1715.8z"/>
	<g>
		<path class="st6" d="M1075.6,1652c3.2-10.8,16.1-15,24.4-6.7c2.3,2.3,5.8-1.2,3.5-3.5c-10.9-11-28.4-5.4-32.7,8.9
			C1069.8,1653.8,1074.7,1655.1,1075.6,1652L1075.6,1652z"/>
	</g>
	<g>
		<path class="st6" d="M1051.7,1668.7c-0.6-5.8,10.6-10.1,14.9-10.3c5.2-0.3,10.1,2.1,12.7,6.7c1.6,2.8,5.9,0.3,4.3-2.5
			c-3.9-6.7-11.6-10.1-19.3-8.9c-6.5,1-18.5,7-17.6,15C1047,1671.9,1052,1671.9,1051.7,1668.7L1051.7,1668.7z"/>
	</g>
	<ellipse class="st12" cx="993.7" cy="689.4" rx="12.7" ry="5.7"/>
	<path class="st9" d="M799.6,857.8v-1.3c2.5,1.1,6.3-2.1,6.3-2.1c6.8,5.9,10.4,1.3,10.4,1.3l-2.9-1.8c1.5-0.5,1.9-2.2,1.9-2.2
		s-4.9-7-8-7c-0.5,0-1.2,0-2,0.1l-4.7-5.6c0,0-5.8,0.7-11.4,1.4c-3.3-2.6-7.2-5.4-9.3-5.5c-3.4-0.1-21.8,9.2-21.8,11
		c0,1.8,8.7,17,8.7,17l-1.3,6.1l60.5,21.6l11.6-14.7c0,0-17.3,5.7-30.3-3.4C802.8,869.3,799.6,863.6,799.6,857.8z"/>
	<polygon class="st11" points="864.7,880.1 844.1,868.1 809.7,907.1 845.2,913.6 	"/>
	<g>
		<path class="st7" d="M820.7,904.3c10.6,1.7,21.2,3.8,31.7,6.3c0.6,0.2,0.9-0.8,0.3-1c-10.5-2.5-21-4.6-31.7-6.3
			C820.4,903.2,820.1,904.2,820.7,904.3L820.7,904.3z"/>
	</g>
	<g>
		<path class="st7" d="M829.7,899.2c11,3.1,22,5.9,33.2,8.2c0.6,0.1,0.9-0.8,0.3-1c-11.2-2.3-22.2-5.1-33.2-8.2
			C829.3,898.1,829,899.1,829.7,899.2L829.7,899.2z"/>
	</g>
	<g>
		<path class="st7" d="M835.3,894.8c8.6,1.8,17.1,3.8,25.6,6.1c0.6,0.2,0.9-0.8,0.3-1c-8.5-2.3-17-4.3-25.6-6.1
			C835,893.7,834.7,894.7,835.3,894.8L835.3,894.8z"/>
	</g>
	<g>
		<path class="st7" d="M835.5,884.4c13,3.9,26.2,6.8,39.6,8.8c0.6,0.1,0.9-0.9,0.3-1c-13.4-2-26.6-4.9-39.6-8.8
			C835.2,883.3,834.9,884.2,835.5,884.4L835.5,884.4z"/>
	</g>
	<g>
		<path class="st7" d="M846.5,880.5c11,3.4,22.2,6.5,33.5,9.2c0.6,0.2,0.9-0.8,0.3-1c-11.3-2.7-22.4-5.8-33.5-9.2
			C846.2,879.3,845.9,880.3,846.5,880.5L846.5,880.5z"/>
	</g>
	<g>
		<path class="st7" d="M834.4,888.7c11.2,2.8,22.4,5.3,33.7,7.6c0.6,0.1,0.9-0.8,0.3-1c-11.3-2.3-22.5-4.8-33.7-7.6
			C834,887.6,833.7,888.5,834.4,888.7L834.4,888.7z"/>
	</g>
	<g>
		<path class="st7" d="M965.2,794.5c-1.3,1.7-1.6,4-1,6c0.5,1.7,3,2.6,4.2,1.1c1.5-1.9,2.4-4.1,2.2-6.6c-0.2-1.7-2-3.3-3.8-2.2
			c-1.6,1.1-2.7,2.5-3.3,4.4c1.6,0.2,3.3,0.4,4.9,0.7c0-0.6,0-1.3,0.1-1.9c0-1.4-1.2-2.5-2.5-2.5c-1.4,0-2.5,1.1-2.5,2.5
			c0,0.6,0,1.3-0.1,1.9c-0.1,2.8,4.2,3.4,4.9,0.7c0.2-0.7,0.4-1.1,1-1.4c-1.3-0.7-2.5-1.4-3.8-2.2c0.1,1.1,0,2.2-0.7,3.1
			c1.4,0.4,2.8,0.7,4.2,1.1c-0.2-0.8-0.1-1.3,0.5-2.1c0.8-1.1,0.2-2.8-0.9-3.4C967.3,792.8,966,793.4,965.2,794.5L965.2,794.5z"/>
	</g>
	<g>
		<path class="st7" d="M960.8,825.9c-2,1.6-2.8,4.7-1.8,7c0.8,1.8,2.6,2.3,4.2,1.1c1.9-1.5,3.1-4.2,2.8-6.6c-0.4-3.1-5.1-4.6-6.1-1
			c-0.9,3.1,3.9,4.4,4.8,1.3c0-0.1,0-0.1,0.1-0.2c-0.2,0.4-0.4,0.7-0.6,1.1c0,0,0.1-0.1,0.1-0.1c-0.4,0.2-0.7,0.4-1.1,0.6
			c0,0,0.1,0,0.1,0c-0.4,0-0.9,0-1.3,0c-0.3-0.1-0.5-0.3-0.7-0.6c-0.2-0.6-0.2-0.7-0.2-0.2c0.1-0.2,0-0.1,0,0.2
			c0,0.2-0.1,0.4-0.2,0.6c-0.2,0.4-0.6,0.9-1.1,1.3c1.4,0.4,2.8,0.7,4.2,1.1c-0.1-0.2-0.1-0.3-0.2-0.5c-0.1-0.3-0.1-0.4,0-0.2
			c0-0.4-0.1,0,0-0.5c0.1-0.4,0.3-0.6,0.7-1c1-0.9,0.9-2.6,0-3.5C963.3,824.8,961.9,825,960.8,825.9L960.8,825.9z"/>
	</g>
	<g>
		<path class="st7" d="M957.4,856.9c-2,0.6-3.3,2.4-3.5,4.5c-0.1,1.2,0.4,2.5,1.4,3.2c1,0.7,2.7,0.6,3.8,0.1
			c1.1-0.4,1.8-1.2,1.8-2.4c0-0.6,0.1-1.3,0.1-1.9c0.1-1.3-1.2-2.6-2.5-2.5c-1.4,0.1-2.4,1.1-2.5,2.5c0,0.6-0.1,1.3-0.1,1.9
			c0.6-0.8,1.2-1.6,1.8-2.4c-0.1,0.1-0.3,0.1-0.4,0.1c-0.3,0.1-0.3,0.1-0.1,0c0.2,0,0.2,0-0.1,0c0.3,0,0.3,0,0,0
			c0.5,0.4,1,0.8,1.5,1.1c0,0.1,0.2,0.5,0.1,0.2c0.2,0.7,0,0.3,0,0.1c0.1-0.2,0,0.4,0,0.2c0-0.1,0-0.1,0-0.2c0.1-0.2,0-0.1-0.1,0.2
			c0,0,0.2-0.3,0.2-0.3c0,0-0.4,0.4-0.1,0.1c0.3-0.3-0.3,0.2-0.1,0.1c0.3-0.1-0.6,0.2-0.1,0c1.2-0.4,2.2-1.8,1.7-3.1
			C960.1,857.4,958.7,856.5,957.4,856.9L957.4,856.9z"/>
	</g>
	<g>
		<path class="st7" d="M954,890.9c0,1.3,0,2.5,0,3.8c0,1.2,1,2.3,2.2,2.5c1.1,0.2,2.5-0.6,2.7-1.8c0.3-1.7,0.1-3.2-0.7-4.7
			c-0.6-1.1-2.3-1.6-3.4-0.9c-1.1,0.7-1.6,2.2-0.9,3.4c0.1,0.1,0.2,0.3,0.1,0c0.1,0.2,0.1,0.4,0.2,0.6c0.1,0.3,0-0.3,0,0
			c0,0.1-0.1,0.6,0,0.2c1.6,0.2,3.3,0.4,4.9,0.7c0-1.3,0-2.5,0-3.8c0-1.3-1.2-2.6-2.5-2.5C955.2,888.5,954,889.5,954,890.9
			L954,890.9z"/>
	</g>
	<g>
		<path class="st7" d="M951.5,922c-1.3,2-1.6,4.5-0.9,6.7c0.4,1.3,1.8,2.2,3.1,1.7c3.2-1,4.4-5.3,1.9-7.7c-2.3-2.2-5.9,1.3-3.5,3.5
			c0.4,0.3,0-0.1-0.1-0.3c0-0.3,0-0.3,0-0.1c0.1-0.3,0.1-0.3,0-0.1c0,0.2,0,0.1,0.1-0.1c-0.1,0.2-0.1,0.2,0,0.1
			c0.1-0.1,0.1-0.1-0.1,0.1c0.1-0.1,0.2-0.2,0.4-0.3c1,0.6,2.1,1.2,3.1,1.7c-0.3-1-0.2-1.8,0.4-2.9c0.7-1.1,0.2-2.8-0.9-3.4
			C953.7,920.4,952.2,920.9,951.5,922L951.5,922z"/>
	</g>
	<g>
		<path class="st7" d="M948.2,955.5c0,1.6,0,3.1,0.1,4.7c0,1.2,1.1,2.6,2.5,2.5c1.7-0.2,3.2-1,4-2.5c0.8-1.5,0.8-3.3,0-4.8
			c-1.6-2.8-5.9-0.3-4.3,2.5c-0.1-0.3-0.1-0.3,0,0c0-0.3,0-0.3,0,0c0-0.1,0-0.2,0-0.2c-0.1,0.3-0.1,0.3,0,0c-0.1,0.2-0.2,0.2,0,0.1
			c0.1-0.1,0.1-0.1-0.1,0.1c0.2-0.2,0.2-0.2,0,0c0.1-0.1,0.3-0.1,0.4-0.1c0.8,0.8,1.7,1.7,2.5,2.5c0-1.6,0-3.1-0.1-4.7
			C953.2,952.2,948.2,952.2,948.2,955.5L948.2,955.5z"/>
	</g>
	<g>
		<path class="st7" d="M946.7,998.8C946.9,999,946.8,998.9,946.7,998.8c-0.1-0.4,0.1-0.2,0-0.1c0-0.1,0-0.1,0-0.2
			C946.7,998.6,946.7,998.7,946.7,998.8c-0.1,0.2-0.1,0.3-0.2,0.5c-0.2,1-0.1,2,0.4,2.9c1.1,1.9,3.5,2.5,5.2,0.9c1-0.9,1-2.7,0-3.5
			c-1-1-2.5-0.9-3.5,0c1-0.9,2.8-0.7,2.8,0.6c0,0.4-0.1,0.3,0-0.1c0-0.2,0.1-0.4,0.1-0.6c0.2-1.1,0.2-2.4-0.5-3.3
			c-0.8-1-2.2-1.7-3.4-0.9C946.6,996,945.9,997.7,946.7,998.8L946.7,998.8z"/>
	</g>
	<g>
		<path class="st7" d="M943.1,1033c-0.3,2-0.1,3.8,0.9,5.5c0.7,1.4,2.9,1.7,3.9,0.5c1-1.1,1.4-2.5,1-3.9c-0.4-1.2-1.7-2.2-3.1-1.7
			c-1.2,0.4-2.2,1.7-1.7,3.1c0.1,0.3,0.1,0.3,0-0.1c0-0.3,0.1-0.6,0.3-0.9c1.3,0.2,2.6,0.3,3.9,0.5c0,0-0.3-0.7-0.2-0.3
			c-0.1-0.2-0.1-0.5-0.2-0.7c-0.1-0.5-0.1,0.2,0-0.3c0-0.1,0-0.8,0-0.3c0.2-1.3-0.3-2.7-1.7-3.1C945,1031,943.3,1031.6,943.1,1033
			L943.1,1033z"/>
	</g>
	<g>
		<path class="st7" d="M941.4,1067.2c0,0.8,0,1.7,0,2.5c1.7,0,3.3,0,5,0c0-0.7,0-1.3,0-2c0-1.3-1.1-2.6-2.5-2.5
			c-1.4,0.1-2.5,1.1-2.5,2.5c0,0.7,0,1.3,0,2c0,1.3,1.1,2.6,2.5,2.5c1.4-0.1,2.5-1.1,2.5-2.5c0-0.8,0-1.7,0-2.5
			c0-1.3-1.1-2.6-2.5-2.5C942.6,1064.8,941.4,1065.8,941.4,1067.2L941.4,1067.2z"/>
	</g>
	<g class="st15">
		<g>
			<defs>
				<path id="SVGID_3_" d="M1014.9,1219.8l-13.7-7.4c-0.3-0.2-0.6-0.5-0.9-0.9c-3.9-5.5-8-10.9-12.1-16.2c-0.2-0.2-0.4-0.4-0.7-0.6
					l13.7,7.4c0.3,0.1,0.5,0.3,0.7,0.6c4.1,5.3,8.1,10.7,12.1,16.2C1014.3,1219.4,1014.6,1219.6,1014.9,1219.8z"/>
			</defs>
			<use xlink:href="#SVGID_3_"  style="overflow:visible;fill:#394480;"/>
			<clipPath id="SVGID_4_">
				<use xlink:href="#SVGID_3_"  style="overflow:visible;"/>
			</clipPath>
			<g class="st16">
				<path class="st5" d="M1014.9,1219.8l-13.7-7.4c-0.3-0.2-0.6-0.5-0.9-0.9c-3.9-5.5-8-10.9-12.1-16.2c-0.2-0.2-0.4-0.4-0.7-0.6
					l13.7,7.4c0.3,0.1,0.5,0.3,0.7,0.6c4.1,5.3,8.1,10.7,12.1,16.2C1014.3,1219.4,1014.6,1219.6,1014.9,1219.8"/>
			</g>
		</g>
		<g>
			<defs>
				<path id="SVGID_5_" d="M1067,1034.1l13.7,7.4c-0.3-0.2-0.7-0.3-1.2-0.2c-0.3,0-0.7,0.2-1.1,0.3c-1.7,0.8-3.6,1.2-5.4,1.7
					c-5.2,1.6-10.4,3.2-15.9,4.9l-13.7-7.4c5.5-1.7,10.7-3.3,15.9-4.9c1.8-0.5,3.7-0.9,5.4-1.7c0.4-0.2,0.8-0.3,1.1-0.3
					C1066.3,1033.9,1066.7,1033.9,1067,1034.1z"/>
			</defs>
			<use xlink:href="#SVGID_5_"  style="overflow:visible;fill:#394480;"/>
			<clipPath id="SVGID_6_">
				<use xlink:href="#SVGID_5_"  style="overflow:visible;"/>
			</clipPath>
			<g class="st17">
				<path class="st5" d="M1057.2,1048.3l-13.7-7.4c5.5-1.7,10.7-3.3,15.9-4.9c1.8-0.5,3.7-0.9,5.4-1.7c0.4-0.2,0.8-0.3,1.1-0.3
					c0.3,0,0.5,0,0.8,0l13.7,7.4c-0.2-0.1-0.5-0.1-0.8,0c-0.3,0-0.7,0.2-1.1,0.3c-1.7,0.8-3.6,1.2-5.4,1.7
					C1067.9,1045,1062.7,1046.6,1057.2,1048.3"/>
				<path class="st5" d="M1080.3,1041.4l-13.7-7.4c0.1,0,0.2,0.1,0.3,0.1l13.7,7.4C1080.6,1041.5,1080.4,1041.4,1080.3,1041.4"/>
				<path class="st5" d="M1080.7,1041.5l-13.7-7.4c0,0,0,0,0.1,0L1080.7,1041.5C1080.7,1041.5,1080.7,1041.5,1080.7,1041.5"/>
			</g>
		</g>
		<g>
			<defs>
				<path id="SVGID_7_" d="M1056.4,1048l-13.7-7.4c0.3,0.2,0.6,0.2,0.8,0.3l13.7,7.4C1057.1,1048.2,1056.7,1048.1,1056.4,1048z"/>
			</defs>
			<use xlink:href="#SVGID_7_"  style="overflow:visible;fill:#394480;"/>
			<clipPath id="SVGID_8_">
				<use xlink:href="#SVGID_7_"  style="overflow:visible;"/>
			</clipPath>
			<g class="st18">
				<path class="st5" d="M1056.4,1048l-13.7-7.4c0,0,0.1,0,0.1,0L1056.4,1048C1056.5,1048,1056.5,1048,1056.4,1048"/>
				<path class="st5" d="M1056.5,1048l-13.7-7.4c0.3,0.1,0.6,0.2,0.7,0.3l13.7,7.4C1057.1,1048.2,1056.8,1048.2,1056.5,1048"/>
			</g>
		</g>
		<g>
			<defs>
				<path id="SVGID_9_" d="M972.7,1158.2l-13.7-7.4c6.7,3.7,14.7,5.2,23.3,4.1l13.7,7.4C987.4,1163.4,979.5,1161.8,972.7,1158.2z"/>
			</defs>
			<use xlink:href="#SVGID_9_"  style="overflow:visible;fill:#394480;"/>
			<clipPath id="SVGID_10_">
				<use xlink:href="#SVGID_9_"  style="overflow:visible;"/>
			</clipPath>
			<g class="st19">
				<path class="st5" d="M972.7,1158.2l-13.7-7.4c0.4,0.2,0.9,0.5,1.3,0.7l13.7,7.4C973.6,1158.6,973.2,1158.4,972.7,1158.2"/>
				<path class="st5" d="M974.1,1158.9l-13.7-7.4c2.2,1.1,4.5,1.9,6.9,2.6l13.7,7.4C978.6,1160.8,976.3,1159.9,974.1,1158.9"/>
				<path class="st5" d="M981,1161.4l-13.7-7.4c4.7,1.2,9.7,1.5,15,0.8l13.7,7.4C990.7,1163,985.7,1162.6,981,1161.4"/>
			</g>
		</g>
		<g>
			<defs>
				<path id="SVGID_11_" d="M1005.9,1064.2l13.7,7.4c12.4,6.7,20.5,20.6,20.4,37.7c-0.2,25.6-20,49.5-44,52.9l-13.7-7.4
					c24-3.4,43.8-27.3,44-52.9C1026.4,1084.8,1018.3,1071,1005.9,1064.2z"/>
			</defs>
			<use xlink:href="#SVGID_11_"  style="overflow:visible;fill:#394480;"/>
			<clipPath id="SVGID_12_">
				<use xlink:href="#SVGID_11_"  style="overflow:visible;"/>
			</clipPath>
			<g class="st20">
				<path class="st5" d="M996,1162.2l-13.7-7.4c4.4-0.6,8.7-1.9,12.7-3.8l13.7,7.4C1004.7,1160.3,1000.4,1161.6,996,1162.2"/>
				<path class="st5" d="M1008.7,1158.4L995,1151c2.5-1.2,4.9-2.6,7.2-4.1l13.7,7.4C1013.6,1155.9,1011.2,1157.2,1008.7,1158.4"/>
				<path class="st5" d="M1015.9,1154.3l-13.7-7.4c1.9-1.3,3.7-2.7,5.4-4.2l13.7,7.4C1019.5,1151.6,1017.8,1153,1015.9,1154.3"/>
				<path class="st5" d="M1021.2,1150l-13.7-7.4c1.6-1.4,3.1-3,4.5-4.6l13.7,7.4C1024.4,1147.1,1022.8,1148.6,1021.2,1150"/>
				<path class="st5" d="M1025.8,1145.5l-13.7-7.4c1.4-1.6,2.8-3.3,4-5.1l13.7,7.4C1028.5,1142.2,1027.2,1143.8,1025.8,1145.5"/>
				<path class="st5" d="M1029.8,1140.4l-13.7-7.4c1.3-1.9,2.5-3.8,3.6-5.8l13.7,7.4C1032.3,1136.6,1031.1,1138.5,1029.8,1140.4"/>
				<path class="st5" d="M1033.4,1134.6l-13.7-7.4c1.3-2.4,2.4-4.8,3.3-7.4l13.7,7.4C1035.8,1129.7,1034.6,1132.2,1033.4,1134.6"/>
				<path class="st5" d="M1036.7,1127.2l-13.7-7.4c2.1-5.7,3.2-11.7,3.3-17.8c0.1-17.1-8-31-20.4-37.7l13.7,7.4
					c12.4,6.7,20.5,20.6,20.4,37.7C1039.9,1115.5,1038.8,1121.5,1036.7,1127.2"/>
			</g>
		</g>
		<g>
			<defs>
				<path id="SVGID_13_" d="M941.1,1215.6l-13.7-7.4c-0.4-0.2-0.8-0.4-1.2-0.7c-1-0.6-1.4-1.2-1.2-2.6c1.2-7.6,2.3-15.2,3.3-22.8
					c0.1-0.9-0.3-2-0.8-2.6c-1-1.2-2.4-1.9-3.3-3.2c-0.5-0.7-1.1-1.2-1.7-1.6l13.7,7.4c0.6,0.3,1.2,0.8,1.7,1.6
					c0.9,1.3,2.4,2,3.3,3.2c0.5,0.6,0.9,1.7,0.8,2.6c-1,7.6-2.1,15.2-3.3,22.8c-0.2,1.4,0.1,2,1.2,2.6
					C940.3,1215.2,940.7,1215.4,941.1,1215.6z"/>
			</defs>
			<use xlink:href="#SVGID_13_"  style="overflow:visible;fill:#394480;"/>
			<clipPath id="SVGID_14_">
				<use xlink:href="#SVGID_13_"  style="overflow:visible;"/>
			</clipPath>
			<g class="st21">
				<path class="st5" d="M941.1,1215.6l-13.7-7.4c-0.4-0.2-0.8-0.4-1.2-0.7c-1-0.6-1.4-1.2-1.2-2.6c1.2-7.6,2.3-15.2,3.3-22.8
					c0.1-0.9-0.3-2-0.8-2.6c-1-1.2-2.4-1.9-3.3-3.2c-0.5-0.7-1.1-1.2-1.7-1.6l13.7,7.4c0.6,0.3,1.2,0.8,1.7,1.6
					c0.9,1.3,2.4,2,3.3,3.2c0.5,0.6,0.9,1.7,0.8,2.6c-1,7.6-2.1,15.2-3.3,22.8c-0.2,1.4,0.1,2,1.2,2.6
					C940.3,1215.2,940.7,1215.4,941.1,1215.6"/>
			</g>
		</g>
		<g>
			<defs>
				<path id="SVGID_15_" d="M992.7,1028.1l-13.7-7.4c1.4-0.3,2.3-0.5,3.2-0.7c0.6-0.1,1.2-0.1,1.8-0.1c0.4,0,0.7,0,1.1-0.1
					c1.9-0.3,3.2-1.4,4.4-3.5c3.6-6.1,7.5-12,11.1-18.1c0.7-1.1,1.3-1.6,2.2-1.7c0.3,0,0.7,0,1.1,0c12.2,1.1,23.6,4.6,34.1,10.4
					l13.7,7.4c-10.5-5.8-21.9-9.3-34.1-10.4c-0.4,0-0.7,0-1.1,0c-0.9,0.1-1.5,0.6-2.2,1.7c-3.7,6.1-7.5,12-11.1,18.1
					c-1.2,2.1-2.5,3.2-4.4,3.5c-0.3,0-0.7,0.1-1.1,0.1c-0.6,0-1.2,0-1.8,0.1C995,1027.5,994.1,1027.7,992.7,1028.1z"/>
			</defs>
			<use xlink:href="#SVGID_15_"  style="overflow:visible;fill:#394480;"/>
			<clipPath id="SVGID_16_">
				<use xlink:href="#SVGID_15_"  style="overflow:visible;"/>
			</clipPath>
			<g class="st22">
				<path class="st5" d="M992.7,1028.1l-13.7-7.4c1.4-0.3,2.3-0.5,3.2-0.7c0.6-0.1,1.2-0.1,1.8-0.1c0.4,0,0.7,0,1.1-0.1
					c0.5-0.1,1-0.2,1.4-0.4l13.7,7.4c-0.4,0.2-0.9,0.3-1.4,0.4c-0.3,0-0.7,0.1-1.1,0.1c-0.6,0-1.2,0-1.8,0.1
					C995,1027.5,994.1,1027.7,992.7,1028.1"/>
				<path class="st5" d="M1000.3,1026.8l-13.7-7.4c0.2-0.1,0.5-0.2,0.7-0.4l13.7,7.4C1000.7,1026.6,1000.5,1026.7,1000.3,1026.8"/>
				<path class="st5" d="M1000.9,1026.4l-13.7-7.4c0.2-0.1,0.4-0.3,0.5-0.4l13.7,7.4C1001.3,1026.1,1001.1,1026.3,1000.9,1026.4"/>
				<path class="st5" d="M1001.5,1026l-13.7-7.4c0.2-0.2,0.4-0.3,0.5-0.5l13.7,7.4C1001.8,1025.6,1001.7,1025.8,1001.5,1026"/>
				<path class="st5" d="M1002,1025.4l-13.7-7.4c0.2-0.2,0.4-0.5,0.6-0.8l13.7,7.4C1002.4,1024.9,1002.2,1025.2,1002,1025.4"/>
				<path class="st5" d="M1002.6,1024.7l-13.7-7.4c0.2-0.3,0.4-0.6,0.6-0.9c3.6-6.1,7.5-12,11.1-18.1c0.1-0.1,0.2-0.3,0.3-0.4
					l13.7,7.4c-0.1,0.1-0.2,0.3-0.3,0.4c-3.7,6.1-7.5,12-11.1,18.1C1003,1024.1,1002.8,1024.4,1002.6,1024.7"/>
				<path class="st5" d="M1014.6,1005.2l-13.7-7.4c0.1-0.2,0.2-0.3,0.3-0.4l13.7,7.4C1014.8,1004.9,1014.7,1005.1,1014.6,1005.2"/>
				<path class="st5" d="M1014.9,1004.8l-13.7-7.4c0.1-0.1,0.2-0.2,0.3-0.3l13.7,7.4C1015.1,1004.6,1015,1004.7,1014.9,1004.8"/>
				<path class="st5" d="M1015.2,1004.5l-13.7-7.4c0.1-0.1,0.2-0.1,0.3-0.2l13.7,7.4C1015.3,1004.4,1015.2,1004.5,1015.2,1004.5"/>
				<path class="st5" d="M1015.4,1004.3l-13.7-7.4c0.1-0.1,0.2-0.1,0.3-0.2l13.7,7.4C1015.6,1004.2,1015.5,1004.3,1015.4,1004.3"/>
				<path class="st5" d="M1015.8,1004.1l-13.7-7.4c0.2-0.1,0.5-0.2,0.7-0.2c0.3,0,0.7,0,1.1,0c4.8,0.4,9.5,1.3,14.1,2.4l13.7,7.4
					c-4.6-1.2-9.3-2-14.1-2.4c-0.4,0-0.7,0-1.1,0C1016.2,1004,1016,1004,1015.8,1004.1"/>
				<path class="st5" d="M1031.6,1006.4l-13.7-7.4c5.7,1.5,11.2,3.5,16.4,6.1l13.7,7.4C1042.8,1009.9,1037.3,1007.8,1031.6,1006.4"
					/>
				<path class="st5" d="M1048.1,1012.5l-13.7-7.4c1.2,0.6,2.4,1.2,3.5,1.8l13.7,7.4C1050.5,1013.7,1049.3,1013.1,1048.1,1012.5"/>
			</g>
		</g>
		<g>
			<defs>
				<path id="SVGID_17_" d="M991.1,1027.8l-13.7-7.4c0.5,0.2,1,0.3,1.6,0.2l13.7,7.4C992.1,1028.2,991.5,1028.1,991.1,1027.8z"/>
			</defs>
			<use xlink:href="#SVGID_17_"  style="overflow:visible;fill:#394480;"/>
			<clipPath id="SVGID_18_">
				<use xlink:href="#SVGID_17_"  style="overflow:visible;"/>
			</clipPath>
			<g class="st23">
				<path class="st5" d="M991.1,1027.8l-13.7-7.4c0,0,0.1,0,0.1,0L991.1,1027.8C991.1,1027.9,991.1,1027.8,991.1,1027.8"/>
				<path class="st5" d="M991.2,1027.9l-13.7-7.4c0.1,0.1,0.3,0.1,0.4,0.2l13.7,7.4C991.4,1028,991.3,1027.9,991.2,1027.9"/>
				<path class="st5" d="M991.6,1028l-13.7-7.4c0.3,0.1,0.7,0.1,1.1,0l13.7,7.4C992.3,1028.1,991.9,1028.1,991.6,1028"/>
			</g>
		</g>
		<g>
			<defs>
				<path id="SVGID_19_" d="M963.6,1002.7l13.7,7.4c-0.5-0.3-1.2-0.4-2-0.3l-13.7-7.4C962.4,1002.3,963.1,1002.4,963.6,1002.7z"/>
			</defs>
			<use xlink:href="#SVGID_19_"  style="overflow:visible;fill:#394480;"/>
			<clipPath id="SVGID_20_">
				<use xlink:href="#SVGID_19_"  style="overflow:visible;"/>
			</clipPath>
			<g class="st24">
				<path class="st5" d="M975.3,1009.8l-13.7-7.4c0.4-0.1,0.9,0,1.3,0.1l13.7,7.4C976.2,1009.8,975.8,1009.7,975.3,1009.8"/>
				<path class="st5" d="M976.6,1009.9l-13.7-7.4c0.2,0.1,0.4,0.1,0.6,0.2l13.7,7.4C977,1010,976.8,1009.9,976.6,1009.9"/>
				<path class="st5" d="M977.2,1010.1l-13.7-7.4c0,0,0.1,0,0.1,0L977.2,1010.1C977.3,1010.1,977.2,1010.1,977.2,1010.1"/>
			</g>
		</g>
		<g>
			<defs>
				<path id="SVGID_21_" d="M934,1065.4l-13.7-7.4c1-0.1,1.8-0.6,2.3-1.2c1.8-2,3.5-4.1,5.2-6.3c0.5-0.7,0.9-1.9,0.7-2.7
					c-1-7.3-2-14.6-3.2-21.9c-0.2-1.3,0-2.1,1.1-3c10.8-9.1,22.5-16,35.2-20.6l13.7,7.4c-12.6,4.6-24.4,11.5-35.2,20.6
					c-1.1,0.9-1.3,1.7-1.1,3c1.1,7.3,2.2,14.6,3.2,21.9c0.1,0.8-0.2,2-0.7,2.7c-1.6,2.2-3.3,4.3-5.2,6.3
					C935.9,1064.8,935,1065.3,934,1065.4z"/>
			</defs>
			<use xlink:href="#SVGID_21_"  style="overflow:visible;fill:#394480;"/>
			<clipPath id="SVGID_22_">
				<use xlink:href="#SVGID_21_"  style="overflow:visible;"/>
			</clipPath>
			<g class="st25">
				<path class="st5" d="M934,1065.4l-13.7-7.4c0.4-0.1,0.8-0.2,1.2-0.3l13.7,7.4C934.8,1065.2,934.4,1065.4,934,1065.4"/>
				<path class="st5" d="M935.2,1065.1l-13.7-7.4c0.2-0.1,0.4-0.2,0.6-0.3l13.7,7.4C935.6,1064.9,935.4,1065,935.2,1065.1"/>
				<path class="st5" d="M935.8,1064.7l-13.7-7.4c0.1-0.1,0.3-0.2,0.4-0.3l13.7,7.4C936,1064.5,935.9,1064.6,935.8,1064.7"/>
				<path class="st5" d="M936.2,1064.4l-13.7-7.4c0.1-0.1,0.2-0.1,0.2-0.2c0.2-0.3,0.5-0.5,0.7-0.8l13.7,7.4
					c-0.2,0.3-0.5,0.5-0.7,0.8C936.3,1064.3,936.2,1064.4,936.2,1064.4"/>
				<path class="st5" d="M937.1,1063.4l-13.7-7.4c1.5-1.8,3-3.6,4.4-5.5c0,0,0,0,0-0.1l13.7,7.4c0,0,0,0,0,0.1
					C940.1,1059.8,938.7,1061.6,937.1,1063.4"/>
				<path class="st5" d="M941.6,1057.9l-13.7-7.4c0.1-0.1,0.1-0.2,0.2-0.3l13.7,7.4C941.7,1057.7,941.6,1057.8,941.6,1057.9"/>
				<path class="st5" d="M941.8,1057.5l-13.7-7.4c0.1-0.2,0.2-0.4,0.2-0.6l13.7,7.4C942,1057.2,941.9,1057.4,941.8,1057.5"/>
				<path class="st5" d="M942,1057l-13.7-7.4c0.2-0.6,0.3-1.2,0.3-1.7c-1-7.3-2-14.6-3.2-21.9c-0.1-0.7-0.1-1.2,0.1-1.7l13.7,7.4
					c-0.2,0.5-0.2,1-0.1,1.7c1.1,7.3,2.2,14.6,3.2,21.9C942.3,1055.8,942.2,1056.4,942,1057"/>
				<path class="st5" d="M939.2,1031.7l-13.7-7.4c0-0.1,0.1-0.2,0.1-0.3l13.7,7.4C939.2,1031.5,939.2,1031.6,939.2,1031.7"/>
				<path class="st5" d="M939.3,1031.4l-13.7-7.4c0-0.1,0.1-0.2,0.2-0.3l13.7,7.4C939.4,1031.2,939.3,1031.3,939.3,1031.4"/>
				<path class="st5" d="M939.4,1031.2l-13.7-7.4c0.1-0.1,0.1-0.2,0.2-0.3l13.7,7.4C939.6,1031,939.5,1031.1,939.4,1031.2"/>
				<path class="st5" d="M939.7,1030.9l-13.7-7.4c0.1-0.1,0.2-0.2,0.3-0.3l13.7,7.4C939.9,1030.7,939.8,1030.8,939.7,1030.9"/>
				<path class="st5" d="M940,1030.5l-13.7-7.4c0,0,0.1-0.1,0.2-0.1c3.1-2.6,6.3-5,9.5-7.3l13.7,7.4c-3.2,2.2-6.4,4.7-9.5,7.3
					C940.1,1030.5,940.1,1030.5,940,1030.5"/>
				<path class="st5" d="M949.6,1023.1l-13.7-7.4c5.2-3.6,10.6-6.7,16.2-9.4l13.7,7.4C960.3,1016.4,954.9,1019.5,949.6,1023.1"/>
				<path class="st5" d="M965.9,1013.7l-13.7-7.4c3.1-1.5,6.2-2.8,9.5-3.9l13.7,7.4C972.1,1011,969,1012.3,965.9,1013.7"/>
			</g>
		</g>
		<g>
			<path class="st26" d="M1094.9,1120.5c1.1,0.7,1.4,1.5,1.1,2.9c-2.7,13.9-7.6,27.1-14.6,39.7c-0.6,1.1-1.2,1.4-2,1.5
				c-0.3,0-0.6,0-0.9,0c-6.7-0.2-13.5-0.3-20.2-0.6c-0.3,0-0.6,0-0.9,0c-0.8,0.1-1.5,0.5-2.1,1.4c-0.5,0.8-1,1.7-1.7,2.2
				c-4.3,3.4-4.2,7.4-3.2,11.9c1.1,5.4,1.7,11.1,2.6,16.6c0.2,1.3-0.2,2.1-1.2,3c-10.7,9-22.3,15.8-34.7,20.5
				c-0.3,0.1-0.7,0.2-0.9,0.3c-0.8,0.1-1.5-0.2-2.1-1.1c-3.9-5.5-8-10.9-12.1-16.2c-0.6-0.7-1.8-1-2.7-1.1c-0.2,0-0.5,0-0.7,0
				c-0.3,0-0.6,0.1-0.9,0.2c-0.3,0.1-0.6,0.1-0.9,0.2c-0.2,0-0.5,0-0.7,0c-0.6-0.1-1.3,0-1.8,0c-2.9,0.4-4.8,2.6-6.6,5.8
				c-3,5.5-6.5,10.6-9.8,15.9c-0.7,1.1-1.3,1.7-2.3,1.9c-0.3,0-0.6,0-0.9,0c-12.4-1.2-24-4.7-34.7-10.7c-1-0.6-1.4-1.2-1.2-2.6
				c1.2-7.6,2.3-15.2,3.3-22.8c0.1-0.9-0.3-2-0.8-2.6c-1-1.2-2.4-1.9-3.3-3.2c-1.2-1.7-2.7-2.2-4.4-2c-0.6,0.1-1.3,0.3-2,0.5
				c-6.1,2.1-12.3,3.9-18.4,5.8c-0.2,0.1-0.4,0.1-0.7,0.2c-0.8,0.1-1.4-0.2-2-1c-7-10.7-11.8-22.7-14.4-35.9
				c-0.2-0.8,0.5-2.2,1.2-2.9c5.4-5.2,10.9-10.2,16.4-15.3c1.3-1.1,1.9-2.2,1.6-3.9c-0.2-1.2-0.3-2.5-0.1-3.7
				c0.7-3.7-0.7-5.7-3.5-7.3c-5-2.8-9.7-6.2-14.6-9.3c-1-0.7-1.3-1.4-1-2.7c2.7-13.9,7.5-27.2,14.6-39.7c0.6-1,1.1-1.5,2-1.6
				c0.2,0,0.5,0,0.8,0c6.9,0.3,13.8,0.5,20.7,0.6c1-0.1,1.8-0.6,2.3-1.2c1.8-2,3.5-4.1,5.2-6.3c0.5-0.7,0.9-1.9,0.7-2.7
				c-1-7.3-2-14.6-3.2-21.9c-0.2-1.3,0-2.1,1.1-3c10.8-9.1,22.5-16,35.2-20.6c1-0.2,2.1,0.2,2.5,0.8c4.1,5.3,8.1,10.7,12.1,16.2
				c0.7,1,1.5,1.5,2.7,1.3c1.4-0.3,2.3-0.5,3.2-0.7c0.6-0.1,1.2-0.1,1.8-0.1c0.4,0,0.7,0,1.1-0.1c1.9-0.3,3.2-1.4,4.4-3.5
				c3.6-6.1,7.5-12,11.1-18.1c0.7-1.1,1.3-1.6,2.2-1.7c0.3,0,0.7,0,1.1,0c12.2,1.1,23.6,4.6,34.1,10.4c1.4,0.8,1.9,1.6,1.6,3.5
				c-1.2,7.5-2.2,15-3.3,22.6c-0.1,0.6,0,1.5,0.4,1.9c1.9,1.9,3.8,3.7,5.8,5.5c0.3,0.3,0.9,0.4,1.1,0.5c5.5-1.7,10.7-3.3,15.9-4.9
				c1.8-0.5,3.7-0.9,5.4-1.7c0.4-0.2,0.8-0.3,1.1-0.3c1.1-0.2,1.8,0.5,2.5,1.7c6.7,10.4,11.3,22.1,14,34.9c0.3,1.4,0,2.4-1.2,3.5
				c-5.6,5.1-11.1,10.2-16.6,15.4c-0.7,0.7-1.1,2.1-1.4,3.2c-0.2,0.9,0.1,1.8,0,2.7c-1,5.1,1.2,7.6,4.9,9.6
				C1086.3,1114.7,1090.5,1117.8,1094.9,1120.5z M996,1162.2c24-3.4,43.8-27.3,44-52.9c0.2-26.3-19.2-45-43.4-41.7
				c-24.3,3.4-44,27.2-44.2,53.1C952.2,1147,971.7,1165.5,996,1162.2"/>
		</g>
		<g>
			<path class="st27" d="M996.6,1067.7c-24.3,3.4-44,27.2-44.2,53.1c0,3.9,0.4,7.6,1.2,11.1c4.6-21.5,22.1-39.6,43-42.5
				c20.6-2.8,37.7,10.3,42.2,30.5c0.7-3.4,1.2-6.9,1.2-10.5C1040.2,1083.1,1020.7,1064.4,996.6,1067.7z"/>
			<path class="st6" d="M1048.6,1223.5c-9.8,7.8-20.4,13.7-31.6,17.9c-0.3,0.1-0.7,0.2-0.9,0.3c-0.8,0.1-1.5-0.2-2.1-1.1
				c-3.9-5.5-8-10.9-12.1-16.1c-0.6-0.7-1.8-1-2.7-1.1c-0.2,0-0.5,0-0.7,0c-0.3,0-0.6,0.1-0.9,0.2c-0.3,0.1-0.6,0.1-0.9,0.2
				c-0.2,0-0.5,0.1-0.7,0c-0.7-0.1-1.2,0-1.8,0c-2.9,0.4-4.8,2.6-6.6,5.8c-3,5.5-6.5,10.6-9.8,16c-0.7,1.1-1.3,1.7-2.3,1.8
				c-0.3,0-0.6,0-0.9,0c-7.3-0.7-14.3-2.2-21-4.6c-1.1-7.7-2.1-15.4-3-22.8c7.6,3,15.6,4.9,24.1,5.7c0.3,0,0.6,0,0.9,0
				c1-0.1,1.6-0.7,2.3-1.8c3.2-5.3,6.8-10.5,9.8-15.9c1.8-3.2,3.7-5.4,6.6-5.8c0.6-0.1,1.2-0.1,1.8,0c0.2,0,0.5,0,0.7,0
				c0.3,0,0.6-0.1,0.9-0.2c0.3-0.1,0.6-0.1,0.9-0.2c0.2,0,0.5,0,0.7,0c1,0.1,2.2,0.4,2.7,1.1c4.1,5.3,8.2,10.7,12.1,16.2
				c0.6,0.9,1.3,1.2,2.1,1.1c0.3,0,0.6-0.1,0.9-0.3c10.7-4,20.7-9.6,30-16.8C1047.5,1209.7,1048.1,1216.6,1048.6,1223.5z"/>
		</g>
		<g>
			<defs>
				<path id="SVGID_23_" d="M911.2,1188.1l-13.7-7.4c-0.3-0.2-0.6-0.5-0.9-0.9c-7-10.7-11.8-22.7-14.4-35.9
					c-0.2-0.8,0.5-2.2,1.2-2.9c5.4-5.2,10.9-10.2,16.4-15.3c1.3-1.1,1.9-2.2,1.6-3.9c-0.2-1.2-0.3-2.5-0.1-3.7
					c0.7-3.7-0.7-5.7-3.5-7.3c-5-2.8-9.7-6.2-14.6-9.3c-1-0.7-1.3-1.4-1-2.7c2.7-13.9,7.5-27.2,14.6-39.7c0.6-1,1.1-1.5,2-1.6
					c0.2,0,0.5,0,0.8,0c6.9,0.3,13.8,0.5,20.7,0.6l13.7,7.4c-6.9-0.1-13.8-0.3-20.7-0.6c-0.3,0-0.5,0-0.8,0c-0.9,0.1-1.4,0.6-2,1.6
					c-7,12.6-11.8,25.8-14.6,39.7c-0.3,1.3,0,2.1,1,2.7c4.9,3.1,9.6,6.5,14.6,9.3c2.8,1.6,4.2,3.6,3.5,7.3c-0.2,1.2-0.1,2.5,0.1,3.7
					c0.2,1.6-0.4,2.8-1.6,3.9c-5.5,5-11,10.1-16.4,15.3c-0.7,0.6-1.3,2.1-1.2,2.9c2.5,13.3,7.4,25.2,14.4,35.9
					C910.6,1187.6,910.9,1187.9,911.2,1188.1z"/>
			</defs>
			<use xlink:href="#SVGID_23_"  style="overflow:visible;fill:#394480;"/>
			<clipPath id="SVGID_24_">
				<use xlink:href="#SVGID_23_"  style="overflow:visible;"/>
			</clipPath>
			<g class="st28">
				<path class="st5" d="M911.2,1188.1l-13.7-7.4c-0.3-0.2-0.6-0.5-0.9-0.9c-7-10.7-11.8-22.7-14.4-35.9c-0.1-0.4,0-0.8,0.2-1.3
					l13.7,7.4c-0.2,0.5-0.3,1-0.2,1.3c2.5,13.3,7.4,25.2,14.4,35.9C910.6,1187.6,910.9,1187.9,911.2,1188.1"/>
				<path class="st5" d="M896.2,1150l-13.7-7.4c0.1-0.2,0.2-0.4,0.3-0.7l13.7,7.4C896.4,1149.5,896.3,1149.7,896.2,1150"/>
				<path class="st5" d="M896.5,1149.3l-13.7-7.4c0.1-0.2,0.2-0.3,0.3-0.5l13.7,7.4C896.7,1149,896.6,1149.2,896.5,1149.3"/>
				<path class="st5" d="M896.8,1148.9l-13.7-7.4c0.1-0.1,0.2-0.2,0.2-0.3l13.7,7.4C896.9,1148.6,896.8,1148.7,896.8,1148.9"/>
				<path class="st5" d="M897,1148.6l-13.7-7.4c0-0.1,0.1-0.1,0.1-0.1c5.4-5.2,10.9-10.2,16.4-15.3c0.2-0.2,0.4-0.4,0.6-0.6
					l13.7,7.4c-0.2,0.2-0.4,0.4-0.6,0.6c-5.5,5-11,10.1-16.4,15.3C897.1,1148.5,897,1148.5,897,1148.6"/>
				<path class="st5" d="M914.1,1132.5l-13.7-7.4c0.1-0.2,0.3-0.3,0.4-0.5l13.7,7.4C914.4,1132.2,914.3,1132.4,914.1,1132.5"/>
				<path class="st5" d="M914.5,1132.1l-13.7-7.4c0.1-0.1,0.2-0.3,0.3-0.4l13.7,7.4C914.7,1131.8,914.6,1131.9,914.5,1132.1"/>
				<path class="st5" d="M914.8,1131.6l-13.7-7.4c0.1-0.2,0.2-0.3,0.2-0.5l13.7,7.4C914.9,1131.3,914.8,1131.5,914.8,1131.6"/>
				<path class="st5" d="M915,1131.2l-13.7-7.4c0.2-0.6,0.3-1.2,0.2-1.9c-0.2-1.2-0.3-2.5-0.1-3.7c0.7-3.7-0.7-5.7-3.5-7.3
					c-5-2.8-9.7-6.2-14.6-9.3c-1-0.7-1.3-1.4-1-2.7c1.4-7,3.3-13.9,5.8-20.6l13.7,7.4c-2.5,6.7-4.4,13.6-5.8,20.6
					c-0.3,1.3,0,2.1,1,2.7c4.9,3.1,9.6,6.5,14.6,9.3c2.8,1.6,4.2,3.6,3.5,7.3c-0.2,1.2-0.1,2.5,0.1,3.7
					C915.2,1130,915.2,1130.6,915,1131.2"/>
				<path class="st5" d="M901.8,1085.6l-13.7-7.4c2.2-5.9,4.8-11.7,7.8-17.3l13.7,7.4C906.5,1073.9,903.9,1079.7,901.8,1085.6"/>
				<path class="st5" d="M909.6,1068.3l-13.7-7.4c0.3-0.6,0.7-1.2,1-1.8c0.1-0.2,0.2-0.4,0.3-0.5l13.7,7.4c-0.1,0.2-0.2,0.3-0.3,0.5
					C910.2,1067.1,909.9,1067.7,909.6,1068.3"/>
				<path class="st5" d="M910.9,1066l-13.7-7.4c0.1-0.1,0.2-0.2,0.3-0.3l13.7,7.4C911.1,1065.7,911,1065.8,910.9,1066"/>
				<path class="st5" d="M911.1,1065.6l-13.7-7.4c0.1-0.1,0.1-0.2,0.2-0.2l13.7,7.4C911.3,1065.5,911.2,1065.6,911.1,1065.6"/>
				<path class="st5" d="M911.4,1065.4l-13.7-7.4c0.1-0.1,0.1-0.1,0.2-0.2l13.7,7.4C911.5,1065.3,911.4,1065.3,911.4,1065.4"/>
				<path class="st5" d="M911.6,1065.2l-13.7-7.4c0.1-0.1,0.2-0.1,0.3-0.2l13.7,7.4C911.8,1065.1,911.7,1065.2,911.6,1065.2"/>
				<path class="st5" d="M911.9,1065.1l-13.7-7.4c0.2-0.1,0.4-0.2,0.7-0.2c0.2,0,0.5,0,0.8,0c6.9,0.3,13.8,0.5,20.7,0.6l13.7,7.4
					c-6.9-0.1-13.8-0.3-20.7-0.6c-0.3,0-0.5,0-0.8,0C912.3,1064.9,912.1,1065,911.9,1065.1"/>
			</g>
		</g>
	</g>
	<g>
		<path class="st14" d="M1068.2,653.3c-20.8-9-33.7-29.4-32.6-52.1c0.1-1.3-1.9-1.3-2,0c-1.1,23.3,12.1,44.6,33.6,53.9
			C1068.4,655.5,1069.4,653.8,1068.2,653.3L1068.2,653.3z"/>
	</g>
	<g>
		<path class="st14" d="M1062.5,651.1c-5.5-7.7-10.5-15.4-12.4-24.8c-1.9-9.2-1.2-18.7-0.4-28c0.1-1.3-1.9-1.3-2,0
			c-0.8,9.5-1.4,19.2,0.5,28.6c1.9,9.6,7,17.4,12.6,25.3C1061.5,653.1,1063.2,652.1,1062.5,651.1L1062.5,651.1z"/>
	</g>
	<g>
		<path class="st14" d="M1052.1,640c-7.4-11.8-10.7-25.4-9.5-39.3c0.1-1.3-1.9-1.3-2,0c-1.2,14.2,2.1,28.2,9.7,40.3
			C1051.1,642.1,1052.8,641.1,1052.1,640L1052.1,640z"/>
	</g>
	<g>
		<path class="st14" d="M1019,639.2c-11.6-4-23.3-7.9-34.9-11.9c-5-1.7-10.2-3.1-14.8-5.6c-2.1-1.1-4.2-2.5-5.7-4.3
			c-3.4-3.9-4.6-13.1,2.9-13.1c1.3,0,1.3-2,0-2c-5.2,0-8.4,4.4-7.7,9.4c0.7,5.4,5,9.3,9.5,11.7c6.8,3.6,14.6,5.6,21.9,8
			c9.4,3.2,18.9,6.4,28.3,9.6C1019.7,641.6,1020.2,639.7,1019,639.2L1019,639.2z"/>
	</g>
	<g>
		<path class="st14" d="M985,620c-3.9-0.9-8-2-11.1-4.6c-3-2.5-6.7-9.3-1.4-11.6c1.2-0.5,0.2-2.2-1-1.7c-4.6,1.9-4.1,7.7-1.9,11.4
			c3.2,5.2,9.3,7.1,14.9,8.5C985.7,622.2,986.2,620.3,985,620L985,620z"/>
	</g>
	<g>
		<path class="st14" d="M1054.8,671.7c4-4.4,9.2-7.6,14.1-10.9c4.8-3.2,9.8-6.2,15.1-8.6c1.2-0.5,0.2-2.3-1-1.7
			c-5.8,2.6-11.2,6-16.5,9.5c-4.6,3.1-9.3,6.1-13.1,10.2C1052.5,671.2,1053.9,672.6,1054.8,671.7L1054.8,671.7z"/>
	</g>
	<g>
		<path class="st14" d="M1062.4,661.8c3.9-1.5,7.9-2.9,11.6-4.6c3.8-1.7,5.9-5.5,9.9-7.2c1.2-0.5,0.7-2.4-0.5-1.9
			c-3.3,1.4-5.5,3.2-8,5.7c-3.2,3.2-9.4,4.4-13.6,6.1C1060.7,660.3,1061.2,662.3,1062.4,661.8L1062.4,661.8z"/>
	</g>
	<g>
		<path class="st14" d="M1060.6,666.2c-6.4,3.5-13.1,11.2-15.8,18c-1.5,3.7-3.1,12.3,2.6,13.3c1.3,0.2,1.8-1.7,0.5-1.9
			c-3.6-0.6-2.6-6.6-1.9-9c0.9-3.1,2.7-5.8,4.6-8.2c3-3.8,6.6-8.1,10.9-10.4C1062.7,667.3,1061.7,665.6,1060.6,666.2L1060.6,666.2z"
			/>
	</g>
	<g>
		<path class="st14" d="M1057.8,669.6c-4.2,3.7-7,8.6-7.6,14.2c-0.5,4.1,0,9.2,4.8,10.2c1.3,0.3,1.8-1.6,0.5-1.9
			c-5.1-1.2-3.5-8.9-2.4-12.2c1.2-3.5,3.4-6.5,6.1-8.9C1060.2,670.1,1058.8,668.7,1057.8,669.6L1057.8,669.6z"/>
	</g>
	<path class="st9" d="M1029.4,686.7c0,0-5.7,12.9-7.7,15.9c-2.1,3,1.9,6.9,11.4,0c9.5-6.9,14.2-9.1,10.6-15.9
		C1040.1,679.9,1029.4,686.7,1029.4,686.7z"/>
	<g>
		<path class="st12" d="M1027.9,697.6c4.8-1.9,9.3-4.3,13.7-7.1c0.5-0.3,0-1.2-0.5-0.9c-4.3,2.7-8.7,5.1-13.4,7
			C1027,696.9,1027.3,697.9,1027.9,697.6L1027.9,697.6z"/>
	</g>
	<g>
		<path class="st12" d="M1028.6,693c3.5,1.4,7,2.4,10.7,3.1c0.6,0.1,0.9-0.8,0.3-1c-3.7-0.7-7.3-1.7-10.7-3.1
			C1028.3,691.8,1028,692.8,1028.6,693L1028.6,693z"/>
	</g>
	<path class="st9" d="M973.1,1112.1c0,0-3.6,55.3-3.6,67.2c0,11.9,5.3,40.7,10.1,41.5c4.8,0.8,3-3.7,5.8-5.1
		c2.8-1.5-0.2,1.6,4.8-1.5s0.3-2.5,7.1-3.1c6.9-0.5,2.6-0.7,6.8-3.1c4.1-2.4,4.7-2.8,3.2-6.6s-2.6-23.3-8.3-34.9
		c-5.7-11.7,0.2-48,0.2-48L973.1,1112.1z"/>
	<g>
		<path class="st7" d="M993.5,779.3c0,0-6,129-20.7,224.1c-11.2,72.1-5,128.5-5,128.5s35.3,10.6,42.7,3.9
			c7.4-6.7,13.6-321.8,4.3-341.2C1005.6,775.1,999.3,774.8,993.5,779.3z"/>
		<path class="st11" d="M967.8,1131.8c0,0-6.3-33.3-0.8-37.2s52.5,7.2,52.5,7.2l-9,33.9C1010.5,1135.8,1012,1146.2,967.8,1131.8z"/>
		<g>
			<path class="st7" d="M974.2,1083c-0.9,11.6-0.8,23.3,0.1,34.9c0.1,1.3,2.1,1.3,2,0c-0.9-11.6-1-23.3-0.1-34.9
				C976.3,1081.7,974.3,1081.8,974.2,1083L974.2,1083z"/>
		</g>
		<g>
			<path class="st7" d="M982.9,1087.7c-3,4.1-1.9,10.8-2,15.5c0,7.6,0.2,15.2,0.6,22.8c0.1,1.3,2.1,1.3,2,0
				c-0.3-6.3-0.5-12.5-0.6-18.8c0-5.2-1.5-14.1,1.7-18.5C985.4,1087.6,983.7,1086.6,982.9,1087.7L982.9,1087.7z"/>
		</g>
		<g>
			<path class="st7" d="M987.9,1090.5c-0.4,9.3-0.8,18.7-1.2,28c-0.1,1.3,1.9,1.3,2,0c0.4-9.3,0.8-18.7,1.2-28
				C990,1089.2,988,1089.2,987.9,1090.5L987.9,1090.5z"/>
		</g>
		<g>
			<path class="st7" d="M998.9,1092.2c0.1,12.3,1.6,25.4-0.3,37.6c-0.2,1.3,1.7,1.8,1.9,0.5c1.9-12.4,0.5-25.6,0.4-38.1
				C1000.9,1090.9,998.9,1090.9,998.9,1092.2L998.9,1092.2z"/>
		</g>
		<g>
			<path class="st7" d="M1007.9,1092.7c-0.2,7.1-0.4,14.1-0.6,21.2c0,1.3,2,1.3,2,0c0.2-7.1,0.4-14.1,0.6-21.2
				C1009.9,1091.5,1007.9,1091.5,1007.9,1092.7L1007.9,1092.7z"/>
		</g>
	</g>
	<path class="st6" d="M1150.5,1570.5c0,0-57.2,29.5-81.1,23.8c-11.8-2.8-70.5-121.9-97.8-248.3c-1-4.8-2-9.5-3-14.3
		c0,0,48.7,115.3,89.3,145.9c24.3,18.3,51.9,32.8,72.8,49.2C1142.1,1553,1150.5,1570.5,1150.5,1570.5z"/>
	<path class="st9" d="M970.8,1148.8c0,0-9.5,16.9-11.8,24.2c-2.2,7.3-6.7,15.5-9.7,17.4c-3.1,1.9,2.6,7,8,1.9s5.3-15.3,8.7-15.3
		s4.4,1.9,4.7,4.9s6.7-4,6.7-4L970.8,1148.8z"/>
</g>
<g id="object">
	<g>
		<polygon class="st26" points="1243,1413 1600.1,1413 1600.1,1704.4 1242.8,1704.4 		"/>
	</g>
	<g>
		<polygon class="st3" points="1243,1413 1292.8,1393.5 1623.6,1393.5 1602.1,1415 		"/>
	</g>
	<g>
		<polygon class="st5" points="1623.6,1393.5 1623.6,1679.4 1599.3,1703.6 1599.3,1415 		"/>
	</g>
	<g>
		<rect x="1265.4" y="1405.1" class="st5" width="346.1" height="1"/>
	</g>
	<g>
		<polygon class="st26" points="1383.8,1398.1 1383.8,1355.4 1499.3,1355.4 1499.3,1398.1 1489.5,1398.1 1489.5,1363.1 
			1392.2,1363.1 1392.2,1398.1 		"/>
	</g>
	<g>
		<polygon class="st5" points="1345.8,1405.5 1322.3,1415 1322.3,1452 1347.5,1452 1347.5,1417.3 1376.3,1405.6 		"/>
	</g>
	<g>
		<polygon class="st5" points="1490.3,1405.5 1466.8,1415 1466.8,1452 1492,1452 1492,1417.3 1520.8,1405.6 		"/>
	</g>
	<g>
		<circle class="st26" cx="1333.3" cy="1440" r="5.5"/>
	</g>
	<g>
		<circle class="st26" cx="1478.7" cy="1440" r="5.5"/>
	</g>
</g>
</svg>
